<?xml version="1.0" encoding="UTF-8"?>
<svg id="Calque_1" data-name="Calque 1" xmlns="http://www.w3.org/2000/svg" viewBox="0 0 352.85 80.22">
  <defs>
    <style>
      .cls-1 {
        fill: #fa8d9f;
      }

      .cls-2 {
        fill: #f6df89;
      }

      .cls-3 {
        fill: #f53548;
      }

      .cls-4 {
        fill: #ff8f17;
      }

      .cls-5 {
        fill: #8a84c9;
      }

      .cls-6 {
        fill: #0a71ce;
      }

      .cls-7 {
        fill: #93d5e8;
      }

      .cls-8 {
        fill: #94d60f;
      }

      .cls-9 {
        fill: #2f9944;
      }

      .cls-10 {
        fill: #593727;
      }

      .cls-11 {
        fill: #5ccfdf;
      }
    </style>
  </defs>
  <g>
    <path class="cls-9" d="M65.96,72.6s-11.42-10.95-31.34-8.21c0,0,16.2,4.1,31.34,14.01v-5.8Z"/>
    <path class="cls-7" d="M95.7,9.18c.52-.3,.95-.7,1.44-1.02-1.67-4.2-3.84-7.14-5.65-7.87-3.73-1.49-14.97,2.81-22.59,12,7.13,1.93,17.74,2.06,26.8-3.11Z"/>
    <g>
      <g>
        <path class="cls-11" d="M97.15,8.16c-.5,.32-.92,.72-1.44,1.02-9.06,5.17-19.66,5.04-26.8,3.11-1.98,2.38-3.72,5.06-5.01,8.09,3.78,2.09,7.58,5.26,10.01,9.72,5.58,10.25,1.86,23.06-1.36,24.82-.32,.18-.8,.25-1.3,.32,6.15,.24,20.71-7.03,26.22-20.8,3.74-9.35,2.38-19.47-.32-26.27Z"/>
        <path class="cls-3" d="M63.63,20.9c.07-.18,.19-.34,.26-.52-.47-.26-.95-.57-1.42-.8-1.75,1.98-3.86,3.79-6.37,5.16-2.51,1.37-5.17,2.16-7.79,2.56-.58,4.65-.1,10.28,2.64,15.31,5.02,9.23,15.81,13.2,20.28,12.63-.6-.02-1.22-.03-1.64-.2-4.75-1.9-12.02-19.02-5.97-34.14Z"/>
        <path class="cls-5" d="M73.9,30.1c-2.43-4.47-6.23-7.63-10.01-9.72-.08,.18-.19,.33-.26,.52-6.05,15.12,1.22,32.24,5.97,34.14,.42,.17,1.04,.18,1.64,.2,.5-.06,.98-.14,1.3-.32,3.22-1.76,6.95-14.56,1.36-24.82Z"/>
      </g>
      <path class="cls-1" d="M62.48,19.58c-4.39-2.11-8.52-2.69-10.16-1.79-1.64,.89-3.4,4.67-4,9.51,2.62-.4,5.28-1.19,7.79-2.56s4.62-3.17,6.37-5.16Z"/>
    </g>
    <g>
      <path class="cls-4" d="M59.81,52.9c-1.89,1.84-4.79,3.61-8.21,3.85-2.49,.17-4.82-.51-6.73-1.48-.45,1.9,2.86,7.83,8.6,9.52,5.81,1.71,11.89-1.57,12.43-3.4,.45-1.54-1.87-6.07-6.09-8.48Z"/>
      <path class="cls-2" d="M59.81,52.9c-.78-.45-1.6-.85-2.51-1.11-5.81-1.71-11.89,1.57-12.43,3.4,0,.02,0,.06,0,.08,1.91,.98,4.24,1.66,6.73,1.48,3.42-.24,6.32-2.01,8.21-3.85Z"/>
    </g>
    <path class="cls-8" d="M65.96,71.33s-11.42-9.68-31.34-6.95c0,0,16.2,2.84,31.34,12.75v-5.8Z"/>
    <path class="cls-9" d="M65.96,72.6s11.42-10.95,31.34-8.21c0,0-16.2,4.1-31.34,14.01v-5.8Z"/>
    <path class="cls-8" d="M65.96,71.33s11.42-9.68,31.34-6.95c0,0-16.2,2.84-31.34,12.75v-5.8Z"/>
    <ellipse class="cls-10" cx="65.96" cy="78.67" rx="13.7" ry="1.54"/>
  </g>
  <path class="cls-6" d="M180.87,45.28c0-7.68,.98-14.24,6.43-19.69,5.45-5.45,12.04-8.17,19.78-8.17h2.85v6.99h-2.85c-5.78,0-10.71,2.03-14.81,6.1-4.1,4.07-4.41,8.99-4.41,14.76v34.94h-6.99V45.28Z"/>
  <path class="cls-6" d="M299.88,17.42c7.49,0,13.92,2.42,19.28,7.24,5.36,4.82,8.04,10.58,8.04,17.27v38.29h-7.71V41.93c0-4.79-1.91-8.91-5.73-12.35s-8.44-5.17-13.88-5.17-9.97,1.73-13.83,5.17-5.78,7.56-5.78,12.35v38.29h-7.82V0h7.82V24.8c5.51-4.92,12.04-7.38,19.61-7.38Z"/>
  <path class="cls-6" d="M326.86,17.42h5.22c0-4.79,1.71-8.89,5.12-12.3,3.41-3.41,7.51-5.11,12.3-5.11h3.35V6.99h-3.35c-2.89,0-5.35,1.02-7.38,3.05-2.03,2.03-3.05,4.5-3.05,7.38h6.29v6.99h-6.29v55.81h-6.99V24.41h-5.22v-6.99Z"/>
  <path class="cls-6" d="M164.65,26.62c-6.1-6.14-13.49-9.21-22.15-9.21s-16.14,3.07-22.25,9.21c-6.1,6.13-9.15,13.53-9.15,22.2s3.05,16.06,9.15,22.2c6.1,6.13,13.52,9.2,22.25,9.2,4.79,0,9.31-1.05,13.58-3.15,1.32-.65,2.45-1.5,3.64-2.29v-8.68c-4.79,4.76-10.53,7.13-17.22,7.13s-12.52-2.38-17.27-7.13c-4.76-4.76-7.14-10.52-7.14-17.27s2.38-12.52,7.14-17.27c4.76-4.76,10.51-7.14,17.27-7.14s12.43,2.38,17.22,7.14c4.79,4.76,7.19,10.52,7.19,17.27v4.77h0v26.63h6.89v-31.4c0-8.66-3.05-16.06-9.15-22.2Z"/>
  <path class="cls-6" d="M256.5,26.62c-6.1-6.14-13.49-9.21-22.15-9.21s-16.14,3.07-22.25,9.21c-6.1,6.13-9.15,13.53-9.15,22.2s3.05,16.06,9.15,22.2c6.1,6.13,13.52,9.2,22.25,9.2,4.79,0,9.31-1.05,13.58-3.15,1.32-.65,2.45-1.5,3.64-2.29v-8.68c-4.79,4.76-10.53,7.13-17.22,7.13s-12.52-2.38-17.27-7.13c-4.76-4.76-7.14-10.52-7.14-17.27s2.38-12.52,7.14-17.27c4.76-4.76,10.51-7.14,17.27-7.14s12.43,2.38,17.22,7.14c4.79,4.76,7.19,10.52,7.19,17.27v4.77h0v26.63h6.89v-31.4c0-8.66-3.05-16.06-9.15-22.2Z"/>
</svg>