<?xml version="1.0" encoding="UTF-8"?>
<svg id="Calque_1" data-name="Calque 1" xmlns="http://www.w3.org/2000/svg" viewBox="0 0 413.24 134.37">
  <defs>
    <style>
      .cls-1 {
        fill: #0197ce;
      }

      .cls-2 {
        fill: #fefefe;
      }

      .cls-3 {
        fill: #222;
      }

      .cls-4 {
        letter-spacing: 0em;
      }

      .cls-5 {
        letter-spacing: -.03em;
      }

      .cls-6 {
        font-family: Roboto-Bold, Roboto;
        font-size: 33.59px;
      }

      .cls-7 {
        font-family: Roboto-Regular, Roboto;
        font-size: 34.24px;
      }

      .cls-8 {
        letter-spacing: 0em;
      }

      .cls-9 {
        letter-spacing: -.03em;
      }
    </style>
  </defs>
  <g>
    <path class="cls-1" d="M79.86,134.37H9.09c-1.54,0-2.56-.27-2.64-.3C1.29,132.39-.01,128.65,0,123.46,.08,85.72,.04,47.97,.04,10.23,.04,3.54,3.58,.03,10.31,.03c16.67,0,33.33,0,50,0,5.97,0,11.95,.04,17.92-.03,1.35-.02,1.7,.4,1.66,1.7-.09,2.45-.01,4.91,0,7.36-2.13-.13-4.26-.35-6.39-.36-16.16-.03-32.32-.02-48.48-.02-.38,0-.75,0-1.13,0-.5,0-.91,.13-.87,.71,.04,.47,0,1.06,.67,1.18,.31,.05,.63,.01,.94,.05,9.93,1.25,14.09,5.97,14.09,15.98,0,20.63-.03,41.26,.01,61.89,.02,7.86-.05,15.69-1.12,23.5-.58,4.23-1.56,8.11-5.15,10.88-5.69,4.39-10.18,3.12-12.55-3.62-.5-1.43-1.08-2.81-1.84-4.11-.66-1.15-1.46-2.2-2.54-3-2.5-1.86-6.6-1.27-8.25,1.19-2.05,3.06-1.61,6.74,1.14,9.2,1.57,1.4,3.45,2.26,5.46,2.83,6.43,1.83,12.98,2.12,19.58,1.44,9.74-1,16.45-6.65,19.07-15.92,.83-2.94,1.15-5.98,1.33-9.25,1.06,1.51,1.99,2.81,2.88,4.15,.58,.87,1.32,1.16,2.37,1.15,6.92-.07,13.83-.07,20.75-.1,0,9.19-.01,18.38-.02,27.58Z"/>
    <path class="cls-2" d="M79.88,106.8c-6.92,.03-13.83,.03-20.75,.1-1.05,.01-1.79-.28-2.37-1.15-.89-1.33-1.83-2.63-2.88-4.15-.18,3.27-.5,6.31-1.33,9.25-2.62,9.27-9.34,14.92-19.07,15.92-6.6,.68-13.15,.39-19.58-1.44-2.01-.57-3.89-1.43-5.46-2.83-2.75-2.45-3.19-6.14-1.14-9.2,1.65-2.46,5.75-3.05,8.25-1.19,1.08,.8,1.87,1.85,2.54,3,.75,1.31,1.34,2.69,1.84,4.11,2.36,6.74,6.85,8.01,12.55,3.62,3.59-2.77,4.58-6.64,5.15-10.88,1.06-7.81,1.13-15.65,1.12-23.5-.04-20.63-.01-41.26-.01-61.89,0-10.01-4.16-14.73-14.09-15.98-.31-.04-.63,0-.94-.05-.68-.12-.63-.71-.67-1.18-.04-.58,.37-.72,.87-.71,.38,0,.75,0,1.13,0,16.16,0,32.32-.01,48.48,.02,2.13,0,4.26,.23,6.39,.36,0,0-.03-.03-.03-.03,0,1.52,0,3.03,0,4.55-4.6-1.55-9.24-2.66-14.18-1.94-6.23,.9-11.41,6.67-11.32,12.73,.27,20.18,.1,40.37,.1,60.56,0,2.26,.1,4.51,.49,6.75,1.09,6.38,5.07,10.86,11.15,12,4.58,.86,9.22,.9,13.82-.09-.02,1.08-.05,2.16-.07,3.24l.03-.03Z"/>
    <path class="cls-3" d="M79.87,13.58c0-1.52,0-3.03,0-4.55,5.46,.88,10.87,1.91,16.04,3.96,17.17,6.81,26.96,19.46,29.66,37.65,1.48,10,1.3,19.96-1.98,29.63-4.79,14.11-15.16,21.84-29.33,25.04-4.74,1.07-9.56,1.42-14.4,1.52,.02-1.08,.05-2.16,.07-3.24,0,0-.05,.05-.05,.05,12.61-2.23,21-9.61,25.6-21.35,3.64-9.3,4.37-19.06,3.47-28.92-1.74-19.05-10.83-32.81-29.09-39.83,0,0,.02,.04,.02,.04Z"/>
    <path class="cls-1" d="M79.87,103.64s.05-.05,.05-.05c-4.6,.98-9.25,.95-13.82,.09-6.08-1.15-10.05-5.63-11.15-12-.38-2.24-.49-4.49-.49-6.75,0-20.19,.17-40.37-.1-60.56-.08-6.06,5.09-11.83,11.32-12.73,4.94-.71,9.58,.39,14.18,1.94,0,0-.02-.04-.02-.04,0,30.03,.01,60.07,.02,90.1Z"/>
  </g>
  <g>
    <text class="cls-6" transform="translate(146.28 53.59)"><tspan x="0" y="0">DY</tspan><tspan class="cls-4" x="42.59" y="0">L</tspan><tspan x="61.09" y="0">AN JACQU</tspan><tspan class="cls-8" x="224.39" y="0">E</tspan><tspan class="cls-9" x="243.61" y="0">T</tspan></text>
    <text class="cls-7" transform="translate(147.39 99.83)"><tspan x="0" y="0">WEB DEVE</tspan><tspan class="cls-5" x="162.81" y="0">L</tspan><tspan x="180.15" y="0">OPER</tspan></text>
  </g>
</svg>