<?xml version="1.0" encoding="UTF-8"?>
<svg id="Calque_1" data-name="Calque 1" xmlns="http://www.w3.org/2000/svg" viewBox="0 0 407 128">
  <defs>
    <style>
      .cls-1 {
        fill: #ee7c00;
      }

      .cls-2 {
        fill: #92c750;
      }

      .cls-3 {
        fill: #71c4c2;
      }

      .cls-4 {
        fill: #bcd041;
      }

      .cls-5 {
        fill: #c166a4;
      }

      .cls-6 {
        fill: #d80542;
      }

      .cls-7 {
        fill: #fff;
        stroke: #92c750;
        stroke-miterlimit: 10;
        stroke-width: 3px;
      }
    </style>
  </defs>
  <rect class="cls-7" x="1.5" y="1.5" width="404" height="125" rx="9.3" ry="9.3"/>
  <path class="cls-2" d="M194.95,80.17c-1.47-1.51-2.18-3.69-2.18-6.5v-2.85h4.19v2.85c0,3.31,1.5,4.66,3.25,4.66s3.25-1.3,3.25-4.66c0-.8,.04-1.51,.04-2.18s-.04-1.22-.04-1.85c0-2.18-.86-3.86-2.54-5.03l-3.86-2.39c-3.25-2.01-4.26-4.28-4.26-7.59v-.75c0-2.73,.72-4.82,2.18-6.38,1.47-1.55,3.25-2.35,5.29-2.35s3.68,.8,5.15,2.35c1.5,1.55,2.25,3.69,2.25,6.38v.54h-4.15v-.59c0-3.19-1.5-4.61-3.25-4.61s-3.29,1.43-3.29,4.61v.75c0,1.76,.68,3.1,2.04,4.07l3.83,2.39c3.58,2.18,4.79,4.95,4.79,8.64v3.99c0,2.81-.75,4.99-2.29,6.5-1.54,1.47-3.25,2.22-5.15,2.22-2.04,0-3.79-.75-5.26-2.22Z"/>
  <path class="cls-2" d="M229.61,73.67c0,2.73-.71,4.82-2.18,6.38-1.47,1.55-3.22,2.35-5.26,2.35s-3.79-.8-5.26-2.35c-1.47-1.55-2.18-3.65-2.18-6.38v-19.8c0-2.73,.72-4.82,2.18-6.38,1.47-1.55,3.22-2.35,5.26-2.35s3.79,.8,5.26,2.35c1.47,1.55,2.18,3.65,2.18,6.38v19.8Zm-4.18-19.8c0-3.19-1.43-4.66-3.25-4.66s-3.25,1.47-3.25,4.66v19.84c0,3.23,1.43,4.61,3.25,4.61s3.25-1.47,3.25-4.66v-19.8Z"/>
  <path class="cls-2" d="M251.6,73.67c0,2.73-.72,4.82-2.18,6.38-1.47,1.55-3.22,2.35-5.26,2.35s-3.79-.8-5.26-2.35c-1.47-1.55-2.18-3.65-2.18-6.38v-19.8c0-2.73,.71-4.82,2.18-6.38,1.47-1.55,3.22-2.35,5.26-2.35s3.79,.8,5.26,2.35c1.47,1.55,2.18,3.65,2.18,6.38v.54h-4.18v-.54c0-3.19-1.43-4.66-3.25-4.66s-3.25,1.47-3.25,4.66v19.8c0,3.36,1.43,4.66,3.25,4.66s3.25-1.47,3.25-4.7v-2.81h4.18v2.85Z"/>
  <rect class="cls-2" x="258.65" y="45.56" width="4.18" height="3.83"/>
  <rect class="cls-2" x="258.65" y="53.12" width="4.18" height="28.56"/>
  <path class="cls-2" d="M270.1,81.68v-27.81c0-2.73,.72-4.82,2.18-6.38,1.47-1.55,3.22-2.35,5.26-2.35s3.79,.8,5.26,2.35,2.18,3.65,2.18,6.38v27.81h-4.18v-16.36h-6.51v16.36h-4.18Zm10.69-20.43v-7.38c0-3.06-1.43-4.57-3.25-4.57s-3.25,1.51-3.25,4.57v7.38h6.51Z"/>
  <path class="cls-2" d="M292.49,45.56h4.18v32.05h8.42v4.07h-9.62c-1.65,0-2.98-1.34-2.98-2.98V45.56Z"/>
  <path class="cls-2" d="M405.34,79.6c-8.27-.09-14.95-6.81-14.95-15.1s6.68-15.01,14.95-15.1v-15.24c-16.68,.09-30.18,13.64-30.18,30.34s13.5,30.25,30.18,30.34v-15.24Z"/>
  <g>
    <path class="cls-2" d="M75.75,114.75c-.23-.13-.49-.23-.78-.23s-.55,.1-.78,.23c-.23,.13-.32,.29-.32,.49v1c0,.19,.1,.36,.32,.49,.23,.16,.49,.23,.78,.23s.55-.06,.78-.23c.23-.13,.32-.29,.32-.49v-1c0-.19-.1-.36-.32-.49Z"/>
    <path class="cls-2" d="M77.63,96.94c-.23-.13-.49-.19-.78-.19s-.58,.06-.78,.19c-.23,.16-.36,.32-.36,.52v4.21c0,.19,.13,.36,.36,.52,.19,.13,.49,.19,.78,.19s.55-.06,.78-.19c.23-.16,.32-.32,.32-.52v-4.21c0-.19-.1-.36-.32-.52Z"/>
    <path class="cls-2" d="M59.92,111.51c-.23-.13-.49-.19-.78-.19-.32,0-.58,.06-.78,.19-.23,.13-.36,.32-.36,.52v4.21c0,.19,.13,.36,.36,.52,.19,.13,.45,.19,.78,.19,.29,0,.55-.06,.78-.19,.23-.16,.32-.32,.32-.52v-4.21c0-.19-.1-.39-.32-.52Z"/>
    <path class="cls-2" d="M37.9,111.31c-.32,0-.58,.06-.81,.19-.23,.16-.32,.32-.32,.52v1.23h2.27v-1.23c0-.19-.13-.36-.32-.52-.23-.13-.49-.19-.81-.19Z"/>
    <path class="cls-2" d="M25.66,111.51c-.23-.13-.49-.23-.78-.23s-.55,.1-.78,.23c-.23,.13-.32,.32-.32,.52v4.21c0,.19,.1,.36,.32,.49,.23,.16,.49,.23,.78,.23s.55-.06,.78-.23c.23-.13,.32-.29,.32-.49v-4.21c0-.19-.1-.39-.32-.52Z"/>
    <path class="cls-2" d="M22.94,100.17c-.23-.13-.49-.19-.78-.19-.32,0-.58,.06-.81,.19-.19,.13-.32,.29-.32,.49v1c0,.19,.13,.36,.32,.52,.23,.13,.49,.19,.81,.19,.29,0,.55-.06,.78-.19,.23-.16,.32-.32,.32-.52v-1c0-.19-.1-.36-.32-.49Z"/>
    <circle class="cls-2" cx="67.04" cy="71.52" r="8.03" transform="translate(-10.59 11.66) rotate(-9.22)"/>
    <path class="cls-2" d="M92.21,97.45c0-.19-.1-.36-.32-.49-.23-.16-.49-.23-.81-.23s-.58,.06-.81,.23c-.23,.13-.32,.29-.32,.49v1.23h2.27v-1.23Z"/>
    <path class="cls-2" d="M48.71,97.45c0-.19-.1-.36-.32-.49-.23-.16-.49-.23-.81-.23-.29,0-.58,.06-.81,.23-.23,.13-.32,.29-.32,.49v1.23h2.27v-1.23Z"/>
    <path class="cls-2" d="M11.08,1.5C5.56,1.5,1.64,6.52,1.64,12.03V117.06c0,5.51,3.92,9.44,9.44,9.44H126.09V1.5H11.08Zm61.08,15.51c0-1.98,.52-3.69,1.62-5.12,1.07-1.42,2.36-2.14,3.89-2.14,.78,0,1.42,.36,1.94,1.07,.55,.68,.81,1.55,.81,2.56v21.79c0,1,.26,1.88,.81,2.56,.52,.71,1.17,1.07,1.94,1.07h8.26c.78,0,1.42,.36,1.98,1.04,.52,.71,.78,1.55,.78,2.59s-.26,1.88-.78,2.56c-.55,.71-1.2,1.07-1.98,1.07h-16.52c-.78,0-1.42-.36-1.98-1.07-.52-.68-.78-1.55-.78-2.56V17.01Zm12.6,85.17c.23,.13,.49,.19,.81,.19v1.39c-.87,0-1.62-.23-2.23-.62-.62-.42-.94-.91-.94-1.49v-9.75h2.04v9.75c0,.19,.1,.36,.32,.52ZM42.43,17.01c0-1.98,.52-3.69,1.55-5.12,1.07-1.42,2.33-2.14,3.79-2.14h18.69c.74,0,1.39,.36,1.91,1.07,.52,.68,.78,1.55,.78,2.56s-.26,1.88-.78,2.59c-.52,.68-1.17,1.04-1.91,1.04h-13.34c-.74,0-1.39,.36-1.91,1.07-.52,.68-.78,1.55-.78,2.56s.26,1.88,.78,2.59c.52,.71,1.17,1.04,1.91,1.04h8c.74,0,1.39,.36,1.91,1.07,.52,.71,.78,1.55,.78,2.56s-.26,1.88-.78,2.59c-.52,.71-1.17,1.07-1.91,1.07h-8c-.74,0-1.39,.32-1.91,1.04-.52,.71-.78,1.55-.78,2.59s.26,1.88,.78,2.56c.52,.71,1.17,1.07,1.91,1.07h13.34c.74,0,1.39,.36,1.91,1.04,.52,.71,.78,1.55,.78,2.59s-.26,1.88-.78,2.56c-.52,.71-1.17,1.07-1.91,1.07h-18.69c-1.46,0-2.72-.71-3.79-2.14-1.04-1.42-1.55-3.14-1.55-5.12V17.01Zm-32.19,0c0-1.98,.55-3.69,1.68-5.12,1.1-1.42,2.43-2.14,3.95-2.14,.81,0,1.46,.36,2.01,1.07,.55,.68,.81,1.55,.81,2.56v7.25c0,1.04,.29,1.88,.84,2.59,.52,.71,1.2,1.04,1.98,1.04h5.63c.81,0,1.46-.32,2.01-1.04,.55-.71,.81-1.55,.81-2.59v-7.25c0-1,.29-1.88,.81-2.56,.55-.71,1.23-1.07,2.01-1.07,1.55,0,2.88,.71,3.98,2.14,1.1,1.42,1.65,3.14,1.65,5.12v21.79c0,1.98-.55,3.69-1.65,5.12-1.1,1.42-2.43,2.14-3.98,2.14-.78,0-1.46-.36-2.01-1.07-.52-.68-.81-1.55-.81-2.56v-7.25c0-1.04-.26-1.88-.81-2.59-.55-.71-1.2-1.04-2.01-1.04h-5.63c-.78,0-1.46,.32-1.98,1.04-.55,.71-.84,1.55-.84,2.59v7.25c0,1-.26,1.88-.81,2.56-.55,.71-1.2,1.07-2.01,1.07-1.52,0-2.85-.71-3.95-2.14-1.13-1.42-1.68-3.14-1.68-5.12V17.01Zm0,74.9l2.04-.03v5.08h2.27v-5.08h2.04v11.66h-2.04v-5.18h-2.27v5.18h-2.04v-11.63Zm6.38,26.2h-4.57c-.45,0-.87-.13-1.23-.32-.36-.23-.52-.49-.52-.81v-10.52h2.01v10.27h4.31v1.39Zm3.3,0h-1.94v-8h1.94v8Zm0-9.36h-1.94v-1.39h1.94v1.39Zm3.01-11.79c-.23-.16-.49-.23-.78-.23-.32,0-.58,.06-.81,.23-.19,.13-.32,.29-.32,.49v.29h-2.04v-.29c0-.58,.29-1.07,.91-1.49,.62-.39,1.36-.58,2.27-.58s1.62,.19,2.23,.58c.62,.42,.94,.91,.94,1.49v4.24c0,.55-.32,1.04-.94,1.46-.65,.39-1.39,.62-2.23,.62-.91,0-1.65-.23-2.27-.62-.62-.42-.91-.91-.91-1.49v-1c0-.55,.29-1.07,.91-1.46,.62-.42,1.36-.62,2.27-.62,.36,0,.74,.03,1.1,.13v-1.26c0-.19-.1-.36-.32-.49Zm5.08,19.27c0,.58-.29,1.07-.91,1.49-.62,.39-1.36,.62-2.23,.62s-1.59-.23-2.23-.62c-.62-.42-.91-.91-.91-1.49v-9.75h2.04v3.59c.36-.1,.71-.16,1.1-.16,.87,0,1.62,.19,2.23,.62,.62,.39,.91,.87,.91,1.46v4.24Zm-.36-14.57v-6.09h2.04v6.09c0,.19,.1,.36,.32,.52,.23,.13,.49,.19,.81,.19s.58-.06,.81-.19c.23-.16,.32-.32,.32-.52v-6.09h2.04v6.12c0,.55-.32,1.07-.94,1.46-.62,.39-1.36,.62-2.23,.62s-1.62-.23-2.23-.62c-.62-.42-.94-.91-.94-1.49Zm5.63,9.81c-.23-.13-.49-.19-.74-.19-.32,0-.58,.1-.81,.23-.19,.13-.32,.32-.32,.52v6.09h-2.04v-6.12c0-.58,.32-1.07,.94-1.46,.62-.42,1.36-.62,2.23-.62s1.55,.19,2.17,.58l-1.42,.97Zm7.77,3.14h-4.31v1.62c0,.19,.1,.36,.32,.52,.23,.13,.49,.19,.81,.19s.58-.06,.81-.19c.19-.16,.32-.32,.32-.52v-.29h2.04v.29c0,.58-.32,1.07-.94,1.49-.62,.39-1.36,.62-2.2,.62-.91,0-1.65-.23-2.23-.62-.62-.42-.94-.91-.94-1.49v-4.21c0-.58,.32-1.07,.94-1.49,.58-.39,1.33-.58,2.23-.58,.84,0,1.59,.19,2.2,.58,.62,.42,.94,.91,.94,1.49v2.59Zm-.87-10.85c-.87,0-1.62-.23-2.23-.62-.62-.42-.94-.91-.94-1.49v-5.02h-.97v-1.39h.97v-3.34h2.04v3.34h1.91v1.39h-1.91v5.02c0,.19,.13,.36,.36,.52,.19,.13,.45,.19,.78,.19,.29,0,.55-.06,.78-.19,.45,.32,.94,.65,1.42,1-.62,.39-1.36,.58-2.2,.58Zm-.78-16.03c-.97,0-1.81-.36-2.49-1.07-.68-.71-1-1.59-1-2.62v-13.18c0-1.04-.36-1.52-1.04-1.52-.58,0-1.65,.74-3.21,2.27s-3.27,2.27-5.08,2.27-3.53-.74-5.08-2.27-2.62-2.27-3.21-2.27c-.68,0-1.04,.49-1.04,1.52v13.18c0,1.04-.36,1.91-1,2.62-.68,.71-1.52,1.07-2.49,1.07s-1.81-.36-2.49-1.07c-.68-.71-1.04-1.59-1.04-2.62v-29.44c0-1.04,.36-1.91,1.04-2.62,.68-.71,1.49-1.07,2.49-1.07,1.91,0,3.56,.71,4.95,2.14l7.87,8.26c.65,.74,1.46,1.1,2.46,1.1s1.81-.36,2.53-1.1l8.84-9.29c.68-.71,1.52-1.1,2.53-1.1,.91,0,1.75,.36,2.43,1.07,.71,.71,1.07,1.59,1.07,2.62v25.74c0,2.04-.68,3.76-2.07,5.21-1.39,1.42-3.04,2.17-4.95,2.17Zm5.02,13.92v-4.21c0-.58,.29-1.07,.91-1.49,.62-.39,1.39-.58,2.27-.58s1.62,.19,2.23,.58c.62,.42,.94,.91,.94,1.49v2.62h-4.34v1.59c0,.19,.1,.36,.32,.52,.23,.13,.52,.19,.81,.19,.32,0,.58-.06,.81-.19,.23-.16,.32-.32,.32-.52v-.29h2.07v.29c0,.58-.32,1.07-.94,1.49-.62,.39-1.36,.62-2.23,.62s-1.65-.23-2.27-.62c-.62-.42-.91-.91-.91-1.49Zm9.81,16.45h-2.01v-8.06c-.78,1.49-1.3,2.43-1.52,2.82-.1,.13-.29,.23-.58,.23-.32,0-.52-.1-.62-.23l-1.55-2.82v8.06h-1.98v-11.63h1.98l2.14,4.18,2.14-4.18h2.01v11.63Zm-3.34-46.6c0-8.94,7.22-16.16,16.13-16.16s16.16,7.22,16.16,16.16-7.25,16.13-16.16,16.13-16.13-7.22-16.13-16.13Zm11.37,44.72c0,.58-.29,1.07-.91,1.49-.62,.39-1.36,.62-2.23,.62s-1.62-.23-2.23-.62c-.62-.42-.94-.91-.94-1.49v-4.21c0-.58,.32-1.07,.94-1.49,.62-.42,1.36-.62,2.23-.62s1.62,.19,2.23,.62c.62,.42,.91,.91,.91,1.49v4.21Zm.74-12.69h-4.6c-.45,0-.87-.1-1.23-.32-.36-.23-.55-.49-.55-.81v-9.33c0-.32,.19-.58,.55-.84,.32-.23,.74-.36,1.23-.36h4.44v1.39h-4.18v3.66h3.47v1.39h-3.47v3.82h4.34v1.39Zm7.16,8.68h-1.98v-.19c0-.19-.13-.39-.36-.52-.19-.13-.49-.19-.81-.19-.29,0-.55,.06-.78,.19-.23,.13-.32,.32-.32,.52v.52c0,.19,.1,.36,.32,.52,.19,.13,.45,.19,.74,.23h.03c.87,0,1.62,.19,2.23,.62,.62,.39,.91,.87,.91,1.46v.87c0,.58-.29,1.07-.91,1.49-.62,.39-1.36,.62-2.23,.62s-1.59-.23-2.2-.62c-.62-.42-.94-.91-.94-1.49v-.36h2.04v.36c0,.19,.1,.36,.32,.49,.23,.16,.49,.23,.78,.23,.32,0,.62-.06,.81-.23,.23-.13,.36-.29,.36-.49v-.87c0-.19-.13-.36-.32-.49-.23-.16-.45-.23-.74-.26h-.06c-.87,0-1.62-.19-2.23-.62-.62-.39-.94-.87-.94-1.46v-.52c0-.58,.32-1.07,.94-1.49,.62-.42,1.36-.62,2.2-.62s1.62,.19,2.23,.62c.62,.42,.91,.91,.91,1.49v.19Zm1.17-14.64h-2.04v-.13c0-.19-.1-.36-.32-.52-.23-.13-.49-.19-.81-.19-.29,0-.55,.06-.78,.19-.23,.16-.32,.32-.32,.52v4.21c0,.19,.1,.36,.32,.52,.23,.13,.49,.19,.78,.19,.32,0,.58-.06,.81-.19,.23-.16,.32-.32,.32-.52v-.1h2.04v.1c0,.58-.29,1.07-.91,1.49-.62,.39-1.39,.62-2.27,.62s-1.62-.23-2.23-.62c-.62-.42-.94-.91-.94-1.49v-4.21c0-.58,.32-1.07,.94-1.49,.62-.39,1.36-.62,2.23-.62s1.65,.23,2.27,.62c.62,.42,.91,.91,.91,1.49v.13Zm6.77,18.65c0,.58-.29,1.07-.91,1.49-.65,.39-1.36,.62-2.23,.62s-1.62-.23-2.23-.62c-.62-.42-.91-.91-.91-1.49v-1c0-.55,.29-1.07,.91-1.46,.62-.42,1.36-.62,2.23-.62,.39,0,.74,.03,1.1,.13v-1.26c0-.19-.1-.36-.32-.52-.23-.13-.49-.19-.78-.19s-.55,.06-.78,.19c-.23,.16-.32,.32-.32,.52v.29h-2.04v-.29c0-.58,.29-1.07,.91-1.49,.62-.39,1.36-.58,2.23-.58s1.62,.19,2.23,.58c.62,.42,.91,.91,.91,1.49v4.21Zm.97-13.08c-.62,.39-1.36,.62-2.23,.62s-1.62-.23-2.23-.62c-.62-.42-.94-.91-.94-1.49v-4.21c0-.58,.32-1.07,.94-1.49,.62-.39,1.36-.62,2.23-.62s1.62,.23,2.23,.62c.62,.42,.94,.91,.94,1.49v4.21c0,.58-.32,1.07-.94,1.49Zm7.16,14.96h-2.04v-6.09c0-.19-.1-.39-.32-.52-.23-.13-.49-.23-.81-.23s-.58,.1-.81,.23c-.23,.13-.32,.32-.32,.52v6.09h-2.01v-6.12c0-.58,.32-1.07,.94-1.46,.62-.42,1.36-.62,2.23-.62s1.59,.19,2.2,.62c.62,.39,.94,.87,.94,1.46l-.03,.03,.03,6.09Zm4.02-15.93c.23,.13,.49,.19,.81,.19s.58-.06,.81-.19c.23-.16,.32-.32,.32-.52v-.29h2.04v.29c0,.58-.29,1.07-.91,1.49-.65,.39-1.39,.62-2.23,.62-.91,0-1.65-.23-2.27-.62-.62-.42-.91-.91-.91-1.49v-4.21c0-.58,.29-1.07,.91-1.49,.62-.39,1.36-.58,2.27-.58,.84,0,1.59,.19,2.23,.58,.62,.42,.91,.91,.91,1.49v2.62h-4.31v1.59c0,.19,.1,.36,.32,.52Zm4.05,12.44h-4.31v1.62c0,.19,.13,.36,.32,.52,.23,.13,.52,.19,.81,.19,.32,0,.58-.06,.81-.19,.23-.16,.32-.32,.32-.52v-.29h2.04v.29c0,.58-.29,1.07-.94,1.49-.62,.39-1.36,.62-2.2,.62s-1.62-.23-2.23-.62c-.62-.42-.91-.91-.91-1.49v-4.21c0-.58,.29-1.07,.91-1.49,.62-.39,1.36-.58,2.23-.58s1.59,.19,2.2,.58c.65,.42,.94,.91,.94,1.49v2.59Zm-3.66-44.2c-2.14,0-3.85-1.72-3.85-3.85s1.72-3.85,3.85-3.85,3.89,1.72,3.89,3.85-1.75,3.85-3.89,3.85Zm0-11.95c-2.14,0-3.85-1.72-3.85-3.85s1.72-3.85,3.85-3.85,3.89,1.72,3.89,3.85-1.75,3.85-3.89,3.85Zm11.95,0c-2.14,0-3.85-1.72-3.85-3.85s1.72-3.85,3.85-3.85,3.85,1.72,3.85,3.85-1.72,3.85-3.85,3.85Zm0-12.18c-2.14,0-3.85-1.72-3.85-3.85s1.72-3.85,3.85-3.85,3.85,1.72,3.85,3.85-1.72,3.85-3.85,3.85Zm11.59,0c-2.14,0-3.85-1.72-3.85-3.85s1.72-3.85,3.85-3.85,3.85,1.72,3.85,3.85-1.72,3.85-3.85,3.85Z"/>
    <path class="cls-2" d="M91.14,111.31c-.29,0-.58,.06-.81,.19-.19,.16-.32,.32-.32,.52v1.23h2.27v-1.23c0-.19-.1-.36-.32-.52-.23-.13-.49-.19-.81-.19Z"/>
    <path class="cls-1" d="M90.65,62.71c-2.14,0-3.85,1.72-3.85,3.85s1.72,3.85,3.85,3.85,3.89-1.72,3.89-3.85-1.75-3.85-3.89-3.85Z"/>
    <path class="cls-3" d="M90.65,50.76c-2.14,0-3.85,1.72-3.85,3.85s1.72,3.85,3.85,3.85,3.89-1.72,3.89-3.85-1.75-3.85-3.89-3.85Z"/>
    <path class="cls-6" d="M102.6,50.76c-2.14,0-3.85,1.72-3.85,3.85s1.72,3.85,3.85,3.85,3.85-1.72,3.85-3.85-1.72-3.85-3.85-3.85Z"/>
    <path class="cls-4" d="M102.6,38.58c-2.14,0-3.85,1.72-3.85,3.85s1.72,3.85,3.85,3.85,3.85-1.72,3.85-3.85-1.72-3.85-3.85-3.85Z"/>
    <path class="cls-5" d="M114.19,38.58c-2.14,0-3.85,1.72-3.85,3.85s1.72,3.85,3.85,3.85,3.85-1.72,3.85-3.85-1.72-3.85-3.85-3.85Z"/>
  </g>
</svg>