<?xml version="1.0" encoding="UTF-8"?>
<svg id="Calque_1" data-name="Calque 1" xmlns="http://www.w3.org/2000/svg" viewBox="0 0 134.72 128.54">
  <defs>
    <style>
      .cls-1 {
        font-family: Roboto-Bold, Roboto;
        font-size: 33px;
      }
    </style>
  </defs>
  <text class="cls-1" transform="translate(0 119.6)"><tspan x="0" y="0">Permis B</tspan></text>
  <g>
    <path d="M1.44,4.92C2.68,1.25,5.3,0,9.08,0c29.78,.07,59.56,.04,89.34,.04,.47,0,.95-.03,1.42,.02,1.1,.12,1.87,.96,1.86,1.96-.02,1.03-.79,1.8-1.91,1.88-.47,.03-.95,.01-1.42,.01-29.87,0-59.73,0-89.6,0-2.9,0-3.45,.55-3.45,3.49,0,23.41,0,46.81,0,70.22,0,2.71,.61,3.31,3.37,3.31,39.31,0,78.61,0,117.92,0,2.75,0,3.37-.61,3.37-3.31,0-23.49,0-46.98,0-70.48,0-2.57-.65-3.23-3.19-3.23-5.73,0-11.46,0-17.2,0-1.78,0-2.87-1.43-2.03-2.74,.35-.55,1.22-1.08,1.86-1.09,6.21-.08,12.41-.12,18.62-.01,3.44,.06,5.83,2.83,5.83,6.46,0,19.87,0,39.74,0,59.61,0,4.05,0,8.1,0,12.16-.01,3.92-2.56,6.51-6.46,6.51-39.82,0-79.64,0-119.47,0-3.39,0-5.4-1.82-6.49-4.88V4.92Z"/>
    <path d="M13.86,37.23c0-6.63,0-13.27,0-19.9,0-2.16,.61-2.78,2.76-2.78,11.89,0,23.78,0,35.67,0,2.18,0,2.77,.59,2.77,2.75,0,13.31,0,26.62,0,39.94,0,2.11-.58,2.7-2.68,2.7-11.93,0-23.86,0-35.79,0-2.13,0-2.72-.61-2.72-2.8,0-6.63,0-13.27,0-19.9Zm8.29,18.76c0-1.87,0-3.66,0-5.46,0-4.53,2.4-6.91,6.95-6.91,3.62,0,7.24,0,10.86,0,4.4,0,6.79,2.38,6.8,6.77,0,1.84,0,3.68,0,5.56h4.3V18.54H17.84V55.98h4.31Zm3.89-.02h16.81c0-2.2,.05-4.3-.02-6.41-.04-1.25-.86-2.02-2.21-2.03-4.09-.04-8.18-.04-12.27,0-1.44,.01-2.27,.84-2.3,2.25-.06,2.02-.01,4.04-.01,6.19Z"/>
    <path d="M88.33,39.18c-7.24,0-14.48,0-21.72,0-.52,0-1.17,.13-1.51-.13-.58-.45-1.32-1.14-1.34-1.75-.02-.61,.68-1.35,1.24-1.83,.32-.27,.99-.16,1.5-.16,14.57,0,29.14,0,43.7,0,.3,0,.6-.01,.9,.01,1.2,.1,2.01,.89,2.01,1.94,0,1.05-.82,1.88-2.03,1.9-2.24,.05-4.48,.02-6.72,.02-5.34,0-10.69,0-16.03,0Z"/>
    <path d="M83.12,18.44c-5.51,0-11.03,0-16.54,0-.43,0-.87,.02-1.29-.05-.98-.14-1.54-.76-1.61-1.73-.07-.97,.38-1.69,1.33-1.96,.49-.14,1.02-.15,1.53-.15,11.12,0,22.23,0,33.35,0,.43,0,.87-.01,1.28,.08,1,.23,1.61,.91,1.57,1.93-.04,1.07-.66,1.76-1.78,1.86-.43,.04-.86,.03-1.29,.03-5.51,0-11.03,0-16.54,0Z"/>
    <path d="M104.98,28.81c-4.65,0-9.3,.02-13.95-.02-.64,0-1.42-.17-1.9-.56-1.09-.87-.67-2.68,.66-3.13,.48-.16,1.02-.16,1.53-.16,9.09,0,18.17,0,27.26,0,.26,0,.52-.01,.77,0,1.27,.1,2.11,.93,2.06,2.02-.05,1.05-.86,1.81-2.09,1.83-2.07,.04-4.13,.01-6.2,.02-2.71,0-5.43,0-8.14,0Z"/>
    <path d="M78.01,45.68c3.83,0,7.66,0,11.49,0,.43,0,.86,0,1.29,.06,.99,.16,1.53,.83,1.58,1.77,.05,1.01-.48,1.73-1.51,1.95-.41,.09-.85,.09-1.28,.09-7.7,0-15.41,0-23.11,0-.39,0-.78,0-1.16-.06-1.1-.19-1.67-.89-1.63-1.98,.04-1.03,.64-1.7,1.69-1.79,.98-.08,1.98-.05,2.97-.05,3.23,0,6.46,0,9.68,0Z"/>
    <path d="M99.75,59.93c-3.49,0-6.97,0-10.46,0-.39,0-.78,.02-1.16-.05-1.07-.2-1.69-.84-1.65-1.96,.04-1.11,.67-1.75,1.78-1.83,.77-.06,1.55-.03,2.32-.03,6.45,0,12.91,0,19.36,0,.39,0,.78-.01,1.16,.01,1.2,.08,2.02,.86,2.02,1.91,0,1.05-.81,1.89-2.01,1.93-1.76,.06-3.53,.02-5.29,.02-2.02,0-4.04,0-6.07,0Z"/>
    <path d="M43.82,66.42c2.92,0,5.85,0,8.77,0,1.64,0,2.47,.7,2.45,1.97-.03,1.2-.88,1.91-2.42,1.91-5.89,.01-11.79,.01-17.68,0-1.49,0-2.4-.78-2.41-1.95-.01-1.17,.89-1.93,2.38-1.94,2.97-.02,5.94,0,8.9,0Z"/>
    <path d="M73.75,28.81c-2.59,0-5.17,.01-7.76,0-1.52-.01-2.37-.75-2.33-1.97,.03-1.16,.87-1.89,2.31-1.89,5.26-.02,10.52-.02,15.78,0,1.48,0,2.38,.8,2.35,1.99-.03,1.15-.87,1.86-2.32,1.87-2.67,.02-5.34,0-8.02,0Z"/>
    <path d="M72.94,56.06c2.24,0,4.48-.01,6.72,0,1.51,.01,2.38,.77,2.35,1.97-.03,1.14-.9,1.89-2.32,1.9-4.57,.02-9.14,.02-13.7,0-1.5,0-2.36-.77-2.33-1.99,.03-1.17,.83-1.86,2.3-1.87,2.33-.02,4.65,0,6.98,0Z"/>
    <path d="M105.04,45.68c1.94,0,3.88-.02,5.82,0,1.4,.02,2.28,.8,2.27,1.93,0,1.13-.89,1.92-2.29,1.93-3.92,.02-7.84,.03-11.76,0-1.46,0-2.24-.74-2.23-1.94,0-1.21,.77-1.89,2.25-1.92,1.98-.03,3.96,0,5.95,0Z"/>
    <path d="M20.9,70.32c-1.51,0-3.02,.01-4.53,0-1.59-.02-2.52-.78-2.5-1.99,.02-1.17,.91-1.89,2.43-1.89,3.15-.01,6.29-.01,9.44,0,1.55,0,2.37,.71,2.35,1.95-.02,1.22-.86,1.91-2.41,1.93-1.59,.02-3.19,0-4.78,0Z"/>
    <path d="M44.68,33.15c-.02,5.64-4.54,10.15-10.19,10.17-5.64,.02-10.29-4.63-10.26-10.27,.03-5.58,4.65-10.18,10.23-10.2,5.65-.01,10.24,4.61,10.22,10.29Zm-3.89-.06c0-3.5-2.81-6.33-6.3-6.34-3.45-.01-6.34,2.84-6.38,6.3-.04,3.5,2.88,6.41,6.4,6.38,3.51-.02,6.28-2.82,6.27-6.34Z"/>
  </g>
</svg>