<?xml version="1.0" encoding="utf-8"?>
<!-- Generator: Adobe Illustrator 26.5.0, SVG Export Plug-In . SVG Version: 6.00 Build 0)  -->
<svg version="1.1" id="Calque_1" xmlns="http://www.w3.org/2000/svg" xmlns:xlink="http://www.w3.org/1999/xlink" x="0px" y="0px"
	 viewBox="0 0 279.56 312.38" style="enable-background:new 0 0 279.56 312.38;" xml:space="preserve">
<style type="text/css">
	.st0{fill:#FFFFFF;}
	.st1{fill:#F2F3F2;}
	.st2{fill:#DCDEDC;}
	.st3{fill:#FF492C;}
	.st4{enable-background:new    ;}
</style>
<g>
	<path class="st0" d="M24.7,242.98l118.16,60.13l113.67-60.13V7.86H24.7V242.98z"/>
	<path class="st1" d="M258.92,8.75L22.31,247.17l122.65,60.73l113.97-58.33V8.75z"/>
	<path class="st2" d="M16.92,86.23v161.83l4.19,2.09l118.16,60.13l3.59,1.8l3.59-1.8l113.97-60.13l4.19-2.09V0.08H16.92V86.23z
		 M24.7,243.58V7.86h232.13v235.72L142.86,303.7L24.7,243.58z"/>
	<polygon class="st3" points="140.77,61.59 169.18,45.44 169.18,0 112.05,0 112.05,45.14 	"/>
	<polygon class="st3" points="270.29,167 11.24,167 1.67,187.94 11.24,208.88 270.29,208.88 279.56,187.94 	"/>
	<g class="st4">
		<path class="st0" d="M108.36,177.32h3.5v8.33h8.94v-8.33h3.5v20.25h-3.5v-8.65h-8.94v8.65h-3.5V177.32z"/>
		<path class="st0" d="M129.22,177.32h12.24v3.27h-8.74v5.06h7.52v3.24h-7.52v5.41h9.03v3.27h-12.53V177.32z"/>
		<path class="st0" d="M145.51,177.32h6.97c3.88,0,6.57,2.49,6.57,6.34c0,3.82-2.81,6.42-6.57,6.42h-3.47v7.49h-3.5V177.32z
			 M152.31,186.84c1.91,0,3.15-1.36,3.15-3.18c0-1.79-1.24-3.1-3.15-3.1h-3.3v6.28H152.31z"/>
		<path class="st0" d="M162.67,177.32h3.5v17.01h8.3v3.24h-11.8V177.32z"/>
	</g>
	<g>
		<g>
			<path class="st0" d="M127.25,38.99h2.78V17.08h-2.78v-4.76h12.03c10.1,0,15.89,6.55,15.89,15.71c0,9.74-5.79,15.71-15.89,15.71
				h-12.03V38.99z M139.28,38.77c6.46,0,10.23-3.95,10.23-10.73c0-6.51-3.73-10.68-10.23-10.68h-3.82v21.41H139.28z"/>
		</g>
	</g>
	<g class="st4">
		<path d="M99.07,242.72l9.27-7.79c1.29-1.06,2.16-2.23,2.16-3.67c0-1.36-1.14-2.72-3.07-2.72c-1.82,0-3.14,1.48-3.14,3.48h-5.34
			c0-4.39,2.95-8.86,8.55-8.86c5.41,0,8.67,3.71,8.67,7.83c0,3.44-1.51,5.6-4.09,7.64l-7.34,5.87v0.42h11.58v5.22H99.07V242.72z"/>
		<path d="M120.86,241.89v-9.99c0-5.34,4.31-8.74,8.93-8.74c4.65,0,8.97,3.41,8.97,8.74v9.99c0,5.33-4.31,8.74-8.97,8.74
			C125.18,250.63,120.86,247.23,120.86,241.89z M133.2,241.74v-9.69c0-1.97-1.36-3.52-3.41-3.52c-2.01,0-3.37,1.55-3.37,3.52v9.69
			c0,2.01,1.32,3.52,3.37,3.52C131.88,245.26,133.2,243.74,133.2,241.74z"/>
		<path d="M143.41,242.72l9.27-7.79c1.29-1.06,2.16-2.23,2.16-3.67c0-1.36-1.14-2.72-3.07-2.72c-1.82,0-3.14,1.48-3.14,3.48h-5.34
			c0-4.39,2.95-8.86,8.55-8.86c5.41,0,8.67,3.71,8.67,7.83c0,3.44-1.51,5.6-4.09,7.64l-7.34,5.87v0.42h11.58v5.22h-17.26V242.72z"/>
		<path d="M165.32,242.72l9.27-7.79c1.29-1.06,2.16-2.23,2.16-3.67c0-1.36-1.14-2.72-3.07-2.72c-1.82,0-3.14,1.48-3.14,3.48h-5.34
			c0-4.39,2.95-8.86,8.55-8.86c5.41,0,8.67,3.71,8.67,7.83c0,3.44-1.51,5.6-4.09,7.64L171,244.5v0.42h11.58v5.22h-17.26V242.72z"/>
	</g>
	<g class="st4">
		<path d="M38.99,102.56h5.64c0,1.89,1.14,3.06,3.07,3.06c2.16,0,3.07-1.51,3.07-3.29V89.36h-7.27v-5.3h12.9v18.24
			c0,4.65-2.46,8.67-8.82,8.67C43.11,110.96,38.99,108.16,38.99,102.56z"/>
		<path d="M59.99,100.56c0-6.02,4.05-10.44,9.16-10.44c2.54,0,4.35,0.98,5.52,2.35h0.42v-1.85h5.52v14.49
			c0,0.53,0.38,0.83,0.91,0.83h0.79v4.62h-5c-1.29,0-2.2-0.98-2.2-2.12h-0.42c-1.06,1.51-2.65,2.61-5.53,2.61
			C64.07,111.04,59.99,106.54,59.99,100.56z M75.16,100.6c0-3.29-2.19-5.15-4.81-5.15c-2.65,0-4.77,2.01-4.77,5.15
			c0,3.14,2.16,5.15,4.81,5.15C73.27,105.74,75.16,103.4,75.16,100.6z"/>
		<path d="M84.2,90.61h5.94l4.01,14.68h0.42l4.05-14.68h5.98l-6.4,19.94h-7.57L84.2,90.61z"/>
		<path d="M105.92,100.56c0-6.02,4.05-10.44,9.16-10.44c2.54,0,4.35,0.98,5.52,2.35h0.42v-1.85h5.53v14.49
			c0,0.53,0.38,0.83,0.91,0.83h0.79v4.62h-5c-1.29,0-2.2-0.98-2.2-2.12h-0.42c-1.06,1.51-2.65,2.61-5.52,2.61
			C110.01,111.04,105.92,106.54,105.92,100.56z M121.09,100.6c0-3.29-2.2-5.15-4.81-5.15c-2.65,0-4.77,2.01-4.77,5.15
			c0,3.14,2.16,5.15,4.81,5.15C119.2,105.74,121.09,103.4,121.09,100.6z"/>
		<path d="M131.08,104.57l4.84-0.87c0.23,1.85,1.89,2.69,3.78,2.69c1.67,0,2.5-0.64,2.5-1.59c0-3.29-10.44-0.53-10.44-8.48
			c0-3.44,3.18-6.21,7.61-6.21c4.16,0,7.08,1.89,7.95,5.49l-4.77,1.29c-0.42-1.4-1.63-2.23-3.1-2.23c-1.32,0-2.23,0.57-2.23,1.44
			c0,3.1,10.56,0.53,10.56,8.17c0,4.01-3.14,6.77-8.33,6.77C135.21,111.04,131.65,109,131.08,104.57z"/>
		<path d="M150.41,100.6c0-5.83,4.09-10.48,10.37-10.48c4.84,0,8.74,2.57,10.03,7.57l-5.11,1.29c-0.61-2.27-2.42-3.6-4.77-3.6
			c-3.03,0-4.92,2.27-4.92,5.22c0,2.91,1.93,5.18,4.92,5.18c2.35,0,4.12-1.29,4.73-3.48l5.15,1.25c-1.25,4.96-5.18,7.49-10.03,7.49
			C154.5,111.04,150.41,106.35,150.41,100.6z"/>
		<path d="M174.4,90.61h5.45v2.65h0.38c0.87-1.7,2.84-3.14,5.11-3.14h1.59v5.49h-2.04c-3.03,0-5,1.89-5,5.6v9.35h-5.49V90.61z"/>
		<path d="M192.87,95.49h-3.29v-4.88h8.78v19.94h-5.49V95.49z M192.41,84.74c0-1.78,1.4-3.18,3.29-3.18c1.85,0,3.25,1.4,3.25,3.18
			c0,1.82-1.4,3.22-3.25,3.22C193.81,87.96,192.41,86.56,192.41,84.74z"/>
		<path d="M203.31,90.61h5.52v1.85h0.42c0.98-1.25,2.61-2.35,5.37-2.35c5.15,0,9.31,4.5,9.31,10.48c0,5.83-3.86,10.44-9.01,10.44
			c-3.07,0-4.84-1.32-5.68-2.54h-0.42v10.75h-5.52V90.61z M218.33,100.56c0-3.1-2.16-5.18-4.81-5.18c-2.88,0-4.77,2.38-4.77,5.18
			c0,3.33,2.19,5.26,4.81,5.26C216.25,105.82,218.33,103.7,218.33,100.56z"/>
		<path d="M229.68,104.38v-8.89h-3.29v-4.88h3.67v-5.45h5.15v5.45h5.3v4.88h-5.3v8.85c0,0.87,0.34,1.25,1.25,1.25h3.82v4.96h-4.35
			C231.91,110.55,229.68,108.73,229.68,104.38z"/>
	</g>
	<g class="st4">
		<path d="M47.84,128.68h-7.08v-5.3h19.75v5.3h-7.08v21.19h-5.6V128.68z"/>
		<path d="M63.7,153.54h2.91c1.06,0,1.67-0.34,2.08-1.4l0.87-2.27H68.5l-6.66-19.94h5.98l4.05,14.64h0.42l4.05-14.64h6.05
			l-8.74,24.6c-1.02,2.84-3.1,4.05-6.66,4.05H63.7V153.54z"/>
		<path d="M85.03,129.93h5.52v1.85h0.42c0.98-1.25,2.61-2.35,5.37-2.35c5.15,0,9.31,4.5,9.31,10.48c0,5.83-3.86,10.44-9.01,10.44
			c-3.07,0-4.84-1.32-5.68-2.54h-0.42v10.75h-5.52V129.93z M100.06,139.88c0-3.1-2.16-5.18-4.81-5.18c-2.88,0-4.77,2.38-4.77,5.18
			c0,3.33,2.19,5.26,4.81,5.26C97.98,145.14,100.06,143.02,100.06,139.88z"/>
		<path d="M108.3,139.92c0-6.24,4.62-10.48,10.18-10.48c6.13,0,9.95,4.54,9.95,10.44v1.4h-14.46c0.04,2.61,1.97,4.2,4.58,4.2
			c1.82,0,3.56-0.72,4.31-2.38l4.92,1.13c-1.44,4.47-5.3,6.13-9.16,6.13C112.54,150.36,108.3,145.93,108.3,139.92z M122.87,137.61
			c-0.26-2.01-2.04-3.59-4.39-3.59c-2.57,0-4.2,1.82-4.46,3.59H122.87z"/>
		<path d="M131.08,143.89l4.84-0.87c0.23,1.85,1.89,2.69,3.78,2.69c1.67,0,2.5-0.64,2.5-1.59c0-3.29-10.44-0.53-10.44-8.48
			c0-3.44,3.18-6.21,7.61-6.21c4.16,0,7.08,1.89,7.95,5.49l-4.77,1.29c-0.42-1.4-1.63-2.23-3.1-2.23c-1.32,0-2.23,0.57-2.23,1.44
			c0,3.1,10.56,0.53,10.56,8.17c0,4.01-3.14,6.77-8.33,6.77C135.2,150.36,131.65,148.32,131.08,143.89z"/>
		<path d="M150.41,139.92c0-5.83,4.09-10.48,10.37-10.48c4.84,0,8.74,2.57,10.03,7.57l-5.11,1.29c-0.61-2.27-2.42-3.6-4.77-3.6
			c-3.03,0-4.92,2.27-4.92,5.22c0,2.91,1.93,5.18,4.92,5.18c2.35,0,4.12-1.29,4.73-3.48l5.15,1.25c-1.25,4.96-5.18,7.49-10.03,7.49
			C154.5,150.36,150.41,145.67,150.41,139.92z"/>
		<path d="M174.4,129.93h5.45v2.65h0.38c0.87-1.7,2.84-3.14,5.11-3.14h1.59v5.49h-2.04c-3.03,0-5,1.89-5,5.6v9.35h-5.49V129.93z"/>
		<path d="M192.87,134.81h-3.29v-4.88h8.78v19.94h-5.49V134.81z M192.41,124.06c0-1.78,1.4-3.18,3.29-3.18
			c1.85,0,3.25,1.4,3.25,3.18c0,1.82-1.4,3.22-3.25,3.22C193.81,127.28,192.41,125.88,192.41,124.06z"/>
		<path d="M203.31,129.93h5.52v1.85h0.42c0.98-1.25,2.61-2.35,5.37-2.35c5.15,0,9.31,4.5,9.31,10.48c0,5.83-3.86,10.44-9.01,10.44
			c-3.07,0-4.84-1.32-5.68-2.54h-0.42v10.75h-5.52V129.93z M218.33,139.88c0-3.1-2.16-5.18-4.81-5.18c-2.88,0-4.77,2.38-4.77,5.18
			c0,3.33,2.19,5.26,4.81,5.26C216.25,145.14,218.33,143.02,218.33,139.88z"/>
		<path d="M229.68,143.7v-8.89h-3.29v-4.88h3.67v-5.45h5.15v5.45h5.3v4.88h-5.3v8.85c0,0.87,0.34,1.25,1.25,1.25h3.82v4.96h-4.35
			C231.91,149.87,229.68,148.05,229.68,143.7z"/>
	</g>
</g>
<g>
</g>
<g>
</g>
<g>
</g>
<g>
</g>
<g>
</g>
<g>
</g>
</svg>
