<?xml version="1.0" encoding="utf-8"?>
<!-- Generator: Adobe Illustrator 26.5.0, SVG Export Plug-In . SVG Version: 6.00 Build 0)  -->
<svg version="1.1" id="Calque_1" xmlns="http://www.w3.org/2000/svg" xmlns:xlink="http://www.w3.org/1999/xlink" x="0px" y="0px"
	 viewBox="0 0 279.56 312.38" style="enable-background:new 0 0 279.56 312.38;" xml:space="preserve">
<style type="text/css">
	.st0{fill:#FFFFFF;}
	.st1{fill:#F2F3F2;}
	.st2{fill:#DCDEDC;}
	.st3{fill:#FF492C;}
	.st4{fill:#FFD200;}
	.st5{enable-background:new    ;}
</style>
<g>
	<path class="st0" d="M23.87,243.13l118.16,60.13l113.67-60.13V8.01H23.87V243.13z"/>
	<path class="st1" d="M258.09,8.9L21.47,247.32l122.65,60.72l113.97-58.33V8.9z"/>
	<path class="st2" d="M16.09,86.38v161.83l4.19,2.09l118.16,60.13l3.59,1.8l3.59-1.8l113.97-60.13l4.19-2.09V0.23H16.09V86.38z
		 M23.87,243.73V8.01H256v235.72l-113.97,60.13L23.87,243.73z"/>
	<polygon class="st3" points="139.93,61.74 168.35,45.59 168.35,0.15 111.22,0.15 111.22,45.29 	"/>
	<polygon class="st4" points="269.46,167.15 10.41,167.15 0.83,188.09 10.41,209.03 269.46,209.03 278.73,188.09 	"/>
	<g class="st5">
		<path d="M98.24,242.87l9.27-7.79c1.29-1.06,2.16-2.23,2.16-3.67c0-1.36-1.14-2.72-3.07-2.72c-1.82,0-3.14,1.48-3.14,3.48h-5.34
			c0-4.39,2.95-8.86,8.55-8.86c5.41,0,8.67,3.71,8.67,7.83c0,3.44-1.51,5.6-4.09,7.64l-7.34,5.87v0.42h11.58v5.22H98.24V242.87z"/>
		<path d="M120.03,242.04v-9.99c0-5.34,4.31-8.74,8.93-8.74c4.65,0,8.97,3.41,8.97,8.74v9.99c0,5.33-4.31,8.74-8.97,8.74
			C124.35,250.78,120.03,247.37,120.03,242.04z M132.37,241.89v-9.69c0-1.97-1.36-3.52-3.41-3.52c-2.01,0-3.37,1.55-3.37,3.52v9.69
			c0,2.01,1.32,3.52,3.37,3.52C131.04,245.41,132.37,243.89,132.37,241.89z"/>
		<path d="M142.58,242.87l9.27-7.79c1.29-1.06,2.16-2.23,2.16-3.67c0-1.36-1.14-2.72-3.07-2.72c-1.82,0-3.14,1.48-3.14,3.48h-5.34
			c0-4.39,2.95-8.86,8.55-8.86c5.41,0,8.67,3.71,8.67,7.83c0,3.44-1.51,5.6-4.09,7.64l-7.34,5.87v0.42h11.58v5.22h-17.26V242.87z"/>
		<path d="M164.49,242.87l9.27-7.79c1.29-1.06,2.16-2.23,2.16-3.67c0-1.36-1.14-2.72-3.07-2.72c-1.82,0-3.14,1.48-3.14,3.48h-5.34
			c0-4.39,2.95-8.86,8.55-8.86c5.41,0,8.67,3.71,8.67,7.83c0,3.44-1.51,5.6-4.09,7.64l-7.34,5.87v0.42h11.58v5.22h-17.26V242.87z"/>
	</g>
	<g>
		<g class="st5">
			<path d="M107.43,177.41h3.51v8.36h8.97v-8.36h3.51v20.32h-3.51v-8.68h-8.97v8.68h-3.51V177.41z"/>
			<path d="M128.35,177.41h12.28v3.28h-8.76v5.08h7.55v3.25h-7.55v5.43h9.05v3.28h-12.57V177.41z"/>
			<path d="M144.69,177.41h6.99c3.89,0,6.59,2.5,6.59,6.36c0,3.83-2.81,6.44-6.59,6.44h-3.48v7.52h-3.51V177.41z M151.51,186.96
				c1.92,0,3.16-1.36,3.16-3.19c0-1.8-1.25-3.11-3.16-3.11h-3.31v6.3H151.51z"/>
			<path d="M161.9,177.41h3.51v17.07h8.33v3.25H161.9V177.41z"/>
		</g>
	</g>
	<g>
		<g>
			<path class="st0" d="M126.42,39.14h2.78V17.23h-2.78v-4.76h12.03c10.1,0,15.89,6.55,15.89,15.71c0,9.74-5.79,15.71-15.89,15.71
				h-12.03V39.14z M138.45,38.92c6.46,0,10.23-3.95,10.23-10.73c0-6.51-3.73-10.68-10.23-10.68h-3.82v21.41H138.45z"/>
		</g>
	</g>
	<g>
		<g class="st5">
			<path d="M74.29,83.65h5.64v10.41h10.07V83.65h5.6v26.49h-5.6V99.35H79.93v10.78h-5.64V83.65z"/>
			<path d="M106.26,88.95h-7.08v-5.3h19.75v5.3h-7.08v21.19h-5.6V88.95z"/>
			<path d="M122.53,83.65h9.88l3.67,20.81h0.42l3.67-20.81h9.88v26.49h-5.49V89.32h-0.42l-3.78,20.81h-8.14l-3.75-20.81h-0.45v20.81
				h-5.49V83.65z"/>
			<path d="M155.33,83.65h5.64v21.23h10.48v5.26h-16.12V83.65z"/>
			<path d="M201.27,110.14l-1.1-1.4c-1.89,1.21-4.2,1.89-6.74,1.89c-5.94,0-9.88-4.01-9.88-8.97c0-3.63,2.04-6.09,4.92-7.64
				l-2.65-3.37v-7h15.89v5.18H191.5v0.42l8.59,10.75c0.26-0.98,0.42-2.04,0.42-3.18h5.45c0,3.1-0.72,5.79-2.01,7.98l4.28,5.34
				H201.27z M196.76,104.46l-4.96-6.24c-1.7,0.53-2.69,1.82-2.69,3.44c0,2.31,2.01,3.56,4.31,3.56
				C194.72,105.22,195.82,104.95,196.76,104.46z"/>
		</g>
		<g class="st5">
			<path d="M99.64,136.33c0-7.76,5.6-13.74,13.7-13.74c6.05,0,11.16,3.44,12.94,9.76h-6.02c-1.17-2.8-3.9-4.31-6.92-4.31
				c-4.54,0-7.87,3.56-7.87,8.29c0,4.77,3.33,8.29,7.87,8.29c2.88,0,5.68-1.4,6.92-4.28h6.02c-1.78,6.36-6.89,9.76-12.94,9.76
				C105.24,150.1,99.64,144.12,99.64,136.33z"/>
			<path d="M128.92,140.53h5.64c0,2.57,2.08,4.09,4.62,4.09c2.69,0,4.01-1.17,4.01-2.76c0-5.71-13.47-0.76-13.47-11.47
				c0-4.16,3.44-7.8,9.2-7.8c4.31,0,9.38,2.35,9.38,8.86h-5.68c0-2.08-1.44-3.63-3.86-3.63s-3.41,1.32-3.41,2.57
				c0,4.96,13.62,0.57,13.62,11.5c0,4.54-3.78,8.17-9.99,8.17C133.16,150.06,128.92,146.32,128.92,140.53z"/>
			<path d="M151.62,140.53h5.64c0,2.57,2.08,4.09,4.62,4.09c2.69,0,4.01-1.17,4.01-2.76c0-5.71-13.47-0.76-13.47-11.47
				c0-4.16,3.44-7.8,9.2-7.8c4.31,0,9.38,2.35,9.38,8.86h-5.68c0-2.08-1.44-3.63-3.86-3.63s-3.41,1.32-3.41,2.57
				c0,4.96,13.62,0.57,13.62,11.5c0,4.54-3.78,8.17-9.99,8.17C155.86,150.06,151.62,146.32,151.62,140.53z"/>
		</g>
	</g>
</g>
<g>
</g>
<g>
</g>
<g>
</g>
<g>
</g>
<g>
</g>
<g>
</g>
</svg>
