<?xml version="1.0" encoding="utf-8"?>
<!-- Generator: Adobe Illustrator 26.5.0, SVG Export Plug-In . SVG Version: 6.00 Build 0)  -->
<svg version="1.1" id="Calque_1" xmlns="http://www.w3.org/2000/svg" xmlns:xlink="http://www.w3.org/1999/xlink" x="0px" y="0px"
	 viewBox="0 0 279.56 312.38" style="enable-background:new 0 0 279.56 312.38;" xml:space="preserve">
<style type="text/css">
	.st0{fill:#FFFFFF;}
	.st1{fill:#F2F3F2;}
	.st2{fill:#DCDEDC;}
	.st3{fill:#FF492C;}
	.st4{enable-background:new    ;}
</style>
<g>
	<path class="st0" d="M23.87,243.13l118.16,60.13l113.67-60.13V8.01H23.87V243.13z"/>
	<path class="st1" d="M258.09,8.9L21.47,247.32l122.65,60.72l113.97-58.33V8.9z"/>
	<path class="st2" d="M16.09,86.38v161.83l4.19,2.09l118.16,60.13l3.59,1.8l3.59-1.8l113.97-60.13l4.19-2.09V0.23H16.09V86.38z
		 M23.87,243.73V8.01H256v235.72l-113.97,60.13L23.87,243.73z"/>
	<polygon class="st3" points="139.93,61.74 168.35,45.59 168.35,0.15 111.22,0.15 111.22,45.29 	"/>
	<polygon class="st3" points="269.46,167.15 10.41,167.15 0.83,188.09 10.41,209.03 269.46,209.03 278.73,188.09 	"/>
	<g class="st4">
		<path d="M98.24,242.87l9.27-7.79c1.29-1.06,2.16-2.23,2.16-3.67c0-1.36-1.14-2.72-3.07-2.72c-1.82,0-3.14,1.48-3.14,3.48h-5.34
			c0-4.39,2.95-8.86,8.55-8.86c5.41,0,8.67,3.71,8.67,7.83c0,3.44-1.51,5.6-4.09,7.64l-7.34,5.87v0.42h11.58v5.22H98.24V242.87z"/>
		<path d="M120.03,242.04v-9.99c0-5.34,4.31-8.74,8.93-8.74c4.65,0,8.97,3.41,8.97,8.74v9.99c0,5.33-4.31,8.74-8.97,8.74
			C124.35,250.78,120.03,247.37,120.03,242.04z M132.37,241.89v-9.69c0-1.97-1.36-3.52-3.41-3.52c-2.01,0-3.37,1.55-3.37,3.52v9.69
			c0,2.01,1.32,3.52,3.37,3.52C131.04,245.41,132.37,243.89,132.37,241.89z"/>
		<path d="M142.58,242.87l9.27-7.79c1.29-1.06,2.16-2.23,2.16-3.67c0-1.36-1.14-2.72-3.07-2.72c-1.82,0-3.14,1.48-3.14,3.48h-5.34
			c0-4.39,2.95-8.86,8.55-8.86c5.41,0,8.67,3.71,8.67,7.83c0,3.44-1.51,5.6-4.09,7.64l-7.34,5.87v0.42h11.58v5.22h-17.26V242.87z"/>
		<path d="M164.49,242.87l9.27-7.79c1.29-1.06,2.16-2.23,2.16-3.67c0-1.36-1.14-2.72-3.07-2.72c-1.82,0-3.14,1.48-3.14,3.48h-5.34
			c0-4.39,2.95-8.86,8.55-8.86c5.41,0,8.67,3.71,8.67,7.83c0,3.44-1.51,5.6-4.09,7.64l-7.34,5.87v0.42h11.58v5.22h-17.26V242.87z"/>
	</g>
	<g>
		<g class="st4">
			<path class="st0" d="M107.12,177.22h3.54v8.44h9.05v-8.44h3.54v20.51h-3.54v-8.76h-9.05v8.76h-3.54V177.22z"/>
			<path class="st0" d="M128.24,177.22h12.39v3.31h-8.85v5.13h7.62v3.28h-7.62v5.48h9.14v3.31h-12.69V177.22z"/>
			<path class="st0" d="M144.74,177.22h7.06c3.93,0,6.65,2.52,6.65,6.42c0,3.87-2.84,6.5-6.65,6.5h-3.52v7.59h-3.54V177.22z
				 M151.62,186.86c1.93,0,3.19-1.38,3.19-3.22c0-1.82-1.26-3.13-3.19-3.13h-3.34v6.36H151.62z"/>
			<path class="st0" d="M162.11,177.22h3.54v17.23h8.41v3.28h-11.95V177.22z"/>
		</g>
	</g>
	<g>
		<g>
			<path class="st0" d="M126.42,39.14h2.78V17.23h-2.78v-4.76h12.03c10.1,0,15.89,6.55,15.89,15.71c0,9.74-5.79,15.71-15.89,15.71
				h-12.03V39.14z M138.45,38.92c6.46,0,10.23-3.95,10.23-10.73c0-6.51-3.73-10.68-10.23-10.68h-3.82v21.41H138.45z"/>
		</g>
	</g>
	<g>
		<g class="st4">
			<path d="M106.45,83.26h9.42c5.26,0,8.82,3.37,8.82,8.51c0,5.11-3.75,8.63-8.82,8.63h-3.78v9.35h-5.64V83.26z M115.65,95.15
				c2.04,0,3.37-1.44,3.37-3.37c0-1.89-1.32-3.25-3.37-3.25h-3.56v6.62H115.65z"/>
			<path d="M128.47,83.26h5.64v10.41h10.07V83.26h5.6v26.49h-5.6V98.97h-10.07v10.79h-5.64V83.26z"/>
			<path d="M155.07,83.26h9.42c5.26,0,8.82,3.37,8.82,8.51c0,5.11-3.75,8.63-8.82,8.63h-3.78v9.35h-5.64V83.26z M164.27,95.15
				c2.04,0,3.37-1.44,3.37-3.37c0-1.89-1.33-3.25-3.37-3.25h-3.56v6.62H164.27z"/>
		</g>
		<g class="st4">
			<path d="M53.16,144.73h2.27v-16.8h-2.27v-4.84h11.88c5.49,0,8.4,3.25,8.4,7.46c0,2.04-1.21,3.9-2.84,4.84v0.23
				c1.89,0.91,3.67,2.88,3.67,5.83c0,5.15-3.97,8.14-8.44,8.14H53.16V144.73z M64.97,133.64c1.7,0,2.84-1.21,2.84-2.76
				c0-1.51-1.21-2.69-2.84-2.69h-4.09v5.45H64.97z M65.08,144.5c1.93,0,3.44-1.25,3.44-3.22s-1.55-3.18-3.48-3.18h-4.16v6.4H65.08z"
				/>
			<path d="M76.73,139.58c0-6.02,4.05-10.44,9.16-10.44c2.54,0,4.35,0.98,5.52,2.35h0.42v-1.85h5.52v14.49
				c0,0.53,0.38,0.83,0.91,0.83h0.79v4.62h-5c-1.29,0-2.2-0.98-2.2-2.12h-0.42c-1.06,1.51-2.65,2.61-5.53,2.61
				C80.82,150.06,76.73,145.56,76.73,139.58z M91.91,139.62c0-3.29-2.19-5.15-4.81-5.15c-2.65,0-4.77,2.01-4.77,5.15
				c0,3.14,2.16,5.15,4.81,5.15C90.01,144.76,91.91,142.42,91.91,139.62z"/>
			<path d="M101.89,139.62c0-5.83,4.09-10.48,10.37-10.48c4.84,0,8.74,2.57,10.03,7.57l-5.11,1.29c-0.61-2.27-2.42-3.6-4.77-3.6
				c-3.03,0-4.92,2.27-4.92,5.22c0,2.91,1.93,5.18,4.92,5.18c2.35,0,4.12-1.29,4.73-3.48l5.15,1.25c-1.25,4.96-5.18,7.49-10.03,7.49
				C105.98,150.06,101.89,145.37,101.89,139.62z"/>
			<path d="M125.88,121.19h5.53v15.14h1.66l4.31-6.7h6.55l-6.09,8.89v0.42l6.4,10.63h-6.58l-4.46-8.17h-1.78v8.17h-5.53V121.19z"/>
			<path d="M146.69,135.83h11.2v5.15h-11.2V135.83z"/>
			<path d="M161.29,139.62c0-6.24,4.62-10.48,10.18-10.48c6.13,0,9.95,4.54,9.95,10.44v1.4h-14.46c0.04,2.61,1.97,4.2,4.58,4.2
				c1.82,0,3.56-0.72,4.31-2.38l4.92,1.13c-1.44,4.47-5.3,6.13-9.16,6.13C165.53,150.06,161.29,145.63,161.29,139.62z
				 M175.86,137.31c-0.26-2.01-2.04-3.59-4.39-3.59c-2.57,0-4.2,1.82-4.46,3.59H175.86z"/>
			<path d="M185.02,129.63h5.53v1.82h0.38c0.91-1.29,2.54-2.31,4.84-2.31c4.2,0,7,3.14,7,7.04v13.4h-5.53v-11.62
				c0-2.01-1.36-3.48-3.29-3.48c-2.01,0-3.41,1.51-3.41,3.52v11.58h-5.53V129.63z"/>
			<path d="M205.98,139.58c0-5.83,3.86-10.44,9.01-10.44c3.07,0,4.73,1.36,5.68,2.54h0.42v-10.48h5.52v28.38h-5.52v-1.85h-0.42
				c-0.95,1.25-2.54,2.35-5.37,2.35C210.14,150.06,205.98,145.56,205.98,139.58z M221.15,139.62c0-3.29-2.19-5.22-4.81-5.22
				c-2.69,0-4.77,2.08-4.77,5.22c0,3.14,2.16,5.22,4.81,5.22C219.26,144.84,221.15,142.42,221.15,139.62z"/>
		</g>
	</g>
</g>
<g>
</g>
<g>
</g>
<g>
</g>
<g>
</g>
<g>
</g>
<g>
</g>
</svg>
