<?xml version="1.0" encoding="utf-8"?>
<!-- Generator: Adobe Illustrator 26.5.0, SVG Export Plug-In . SVG Version: 6.00 Build 0)  -->
<svg version="1.1" id="Calque_1" xmlns="http://www.w3.org/2000/svg" xmlns:xlink="http://www.w3.org/1999/xlink" x="0px" y="0px"
	 viewBox="0 0 279.56 312.38" style="enable-background:new 0 0 279.56 312.38;" xml:space="preserve">
<style type="text/css">
	.st0{fill:#FFFFFF;}
	.st1{fill:#F2F3F2;}
	.st2{fill:#DCDEDC;}
	.st3{fill:#FF492C;}
	.st4{fill:#2690CE;}
	.st5{enable-background:new    ;}
</style>
<g>
	<path class="st0" d="M23.87,243.13l118.16,60.13l113.67-60.13V8.01H23.87V243.13z"/>
	<path class="st1" d="M258.09,8.9L21.47,247.32l122.65,60.72l113.97-58.33V8.9z"/>
	<path class="st2" d="M16.09,86.38v161.83l4.19,2.09l118.16,60.13l3.59,1.8l3.59-1.8l113.97-60.13l4.19-2.09V0.23H16.09V86.38z
		 M23.87,243.73V8.01H256v235.72l-113.97,60.13L23.87,243.73z"/>
	<polygon class="st3" points="139.93,61.74 168.35,45.59 168.35,0.15 111.22,0.15 111.22,45.29 	"/>
	<polygon class="st4" points="269.46,167.15 10.41,167.15 0.83,188.09 10.41,209.03 269.46,209.03 278.73,188.09 	"/>
	<g class="st5">
		<path d="M98.24,242.87l9.27-7.79c1.29-1.06,2.16-2.23,2.16-3.67c0-1.36-1.14-2.72-3.07-2.72c-1.82,0-3.14,1.48-3.14,3.48h-5.34
			c0-4.39,2.95-8.86,8.55-8.86c5.41,0,8.67,3.71,8.67,7.83c0,3.44-1.51,5.6-4.09,7.64l-7.34,5.87v0.42h11.58v5.22H98.24V242.87z"/>
		<path d="M120.03,242.04v-9.99c0-5.34,4.31-8.74,8.93-8.74c4.65,0,8.97,3.41,8.97,8.74v9.99c0,5.33-4.31,8.74-8.97,8.74
			C124.35,250.78,120.03,247.37,120.03,242.04z M132.37,241.89v-9.69c0-1.97-1.36-3.52-3.41-3.52c-2.01,0-3.37,1.55-3.37,3.52v9.69
			c0,2.01,1.32,3.52,3.37,3.52C131.04,245.41,132.37,243.89,132.37,241.89z"/>
		<path d="M142.58,242.87l9.27-7.79c1.29-1.06,2.16-2.23,2.16-3.67c0-1.36-1.14-2.72-3.07-2.72c-1.82,0-3.14,1.48-3.14,3.48h-5.34
			c0-4.39,2.95-8.86,8.55-8.86c5.41,0,8.67,3.71,8.67,7.83c0,3.44-1.51,5.6-4.09,7.64l-7.34,5.87v0.42h11.58v5.22h-17.26V242.87z"/>
		<path d="M164.49,242.87l9.27-7.79c1.29-1.06,2.16-2.23,2.16-3.67c0-1.36-1.14-2.72-3.07-2.72c-1.82,0-3.14,1.48-3.14,3.48h-5.34
			c0-4.39,2.95-8.86,8.55-8.86c5.41,0,8.67,3.71,8.67,7.83c0,3.44-1.51,5.6-4.09,7.64l-7.34,5.87v0.42h11.58v5.22h-17.26V242.87z"/>
	</g>
	<g>
		<g class="st5">
			<path class="st0" d="M107.12,177.22h3.54v8.44h9.05v-8.44h3.54v20.51h-3.54v-8.76h-9.05v8.76h-3.54V177.22z"/>
			<path class="st0" d="M128.24,177.22h12.39v3.31h-8.85v5.13h7.62v3.28h-7.62v5.48h9.14v3.31h-12.69V177.22z"/>
			<path class="st0" d="M144.74,177.22h7.06c3.93,0,6.65,2.52,6.65,6.42c0,3.87-2.84,6.5-6.65,6.5h-3.52v7.59h-3.54V177.22z
				 M151.62,186.86c1.93,0,3.19-1.38,3.19-3.22c0-1.82-1.26-3.13-3.19-3.13h-3.34v6.36H151.62z"/>
			<path class="st0" d="M162.11,177.22h3.54v17.23h8.41v3.28h-11.95V177.22z"/>
		</g>
	</g>
	<g>
		<g>
			<path class="st0" d="M126.42,39.14h2.78V17.23h-2.78v-4.76h12.03c10.1,0,15.89,6.55,15.89,15.71c0,9.74-5.79,15.71-15.89,15.71
				h-12.03V39.14z M138.45,38.92c6.46,0,10.23-3.95,10.23-10.73c0-6.51-3.73-10.68-10.23-10.68h-3.82v21.41H138.45z"/>
		</g>
	</g>
	<g>
		<g class="st5">
			<path d="M104.81,102.09h5.64c0,2.57,2.08,4.09,4.62,4.09c2.69,0,4.01-1.17,4.01-2.76c0-5.71-13.47-0.76-13.47-11.47
				c0-4.16,3.44-7.8,9.2-7.8c4.31,0,9.38,2.35,9.38,8.86h-5.68c0-2.08-1.44-3.63-3.86-3.63s-3.41,1.32-3.41,2.57
				c0,4.96,13.62,0.57,13.62,11.5c0,4.54-3.78,8.17-9.99,8.17C109.04,111.62,104.81,107.88,104.81,102.09z"/>
			<path d="M144.35,111.32c-0.91,0.19-1.89,0.3-2.91,0.3c-7.87,0-13.74-5.94-13.74-13.77c0-7.76,5.94-13.7,13.77-13.7
				c7.91,0,13.77,6.02,13.77,13.7c0,4.88-2.38,9.12-6.09,11.54l1.93,4.81h-5.56L144.35,111.32z M142.3,106.17l-2.61-6.58h5.56
				l1.74,4.39c1.55-1.44,2.54-3.59,2.54-6.13c0-4.73-3.52-8.33-8.06-8.33c-4.62,0-8.06,3.59-8.06,8.33c0,4.81,3.44,8.4,8.06,8.4
				C141.77,106.25,142.04,106.21,142.3,106.17z"/>
			<path d="M159.4,84.64h5.64v21.23h10.48v5.26H159.4V84.64z"/>
		</g>
		<g class="st5">
			<path d="M48.85,146.1h2.27v-16.8h-2.27v-4.84h10.41c8.59,0,13.47,5.52,13.47,13.24c0,8.21-4.88,13.24-13.47,13.24H48.85V146.1z
				 M59.25,145.88c4.84,0,7.64-3.1,7.64-8.17c0-4.84-2.76-8.14-7.64-8.14h-2.57v16.31H59.25z"/>
			<path d="M75.56,140.96c0-6.02,4.05-10.44,9.16-10.44c2.54,0,4.35,0.98,5.52,2.35h0.42V131h5.53v14.49c0,0.53,0.38,0.83,0.91,0.83
				h0.79v4.62h-5c-1.29,0-2.2-0.98-2.2-2.12h-0.42c-1.06,1.51-2.65,2.61-5.52,2.61C79.64,151.44,75.56,146.94,75.56,140.96z
				 M90.73,140.99c0-3.29-2.2-5.15-4.81-5.15c-2.65,0-4.77,2.01-4.77,5.15c0,3.14,2.16,5.15,4.81,5.15
				C88.84,146.14,90.73,143.79,90.73,140.99z"/>
			<path d="M103.82,144.78v-8.89h-3.29V131h3.67v-5.45h5.15V131h5.3v4.88h-5.3v8.85c0,0.87,0.34,1.25,1.25,1.25h3.82v4.96h-4.35
				C106.06,150.95,103.82,149.13,103.82,144.78z"/>
			<path d="M117.48,140.96c0-6.02,4.05-10.44,9.16-10.44c2.54,0,4.35,0.98,5.52,2.35h0.42V131h5.53v14.49
				c0,0.53,0.38,0.83,0.91,0.83h0.79v4.62h-5c-1.29,0-2.2-0.98-2.2-2.12h-0.42c-1.06,1.51-2.65,2.61-5.52,2.61
				C121.57,151.44,117.48,146.94,117.48,140.96z M132.65,140.99c0-3.29-2.2-5.15-4.81-5.15c-2.65,0-4.77,2.01-4.77,5.15
				c0,3.14,2.16,5.15,4.81,5.15C130.76,146.14,132.65,143.79,132.65,140.99z"/>
			<path d="M149.53,149.09h-0.42v1.85h-5.52v-28.38h5.52v10.48h0.42c0.95-1.17,2.61-2.54,5.68-2.54c5.15,0,9.01,4.62,9.01,10.44
				c0,5.98-4.16,10.48-9.31,10.48C152.06,151.44,150.48,150.34,149.53,149.09z M158.61,140.99c0-3.14-2.08-5.22-4.77-5.22
				c-2.61,0-4.81,1.93-4.81,5.22c0,2.8,1.89,5.22,4.77,5.22C156.45,146.22,158.61,144.14,158.61,140.99z"/>
			<path d="M166.86,140.96c0-6.02,4.05-10.44,9.16-10.44c2.54,0,4.35,0.98,5.52,2.35h0.42V131h5.52v14.49
				c0,0.53,0.38,0.83,0.91,0.83h0.79v4.62h-5c-1.29,0-2.2-0.98-2.2-2.12h-0.42c-1.06,1.51-2.65,2.61-5.53,2.61
				C170.94,151.44,166.86,146.94,166.86,140.96z M182.03,140.99c0-3.29-2.19-5.15-4.81-5.15c-2.65,0-4.77,2.01-4.77,5.15
				c0,3.14,2.16,5.15,4.81,5.15C180.14,146.14,182.03,143.79,182.03,140.99z"/>
			<path d="M192.02,144.97l4.84-0.87c0.23,1.85,1.89,2.69,3.78,2.69c1.67,0,2.5-0.64,2.5-1.59c0-3.29-10.44-0.53-10.44-8.48
				c0-3.44,3.18-6.21,7.61-6.21c4.16,0,7.08,1.89,7.95,5.49l-4.77,1.29c-0.42-1.4-1.63-2.23-3.1-2.23c-1.32,0-2.23,0.57-2.23,1.44
				c0,3.1,10.56,0.53,10.56,8.17c0,4.01-3.14,6.77-8.33,6.77C196.14,151.44,192.58,149.4,192.02,144.97z"/>
			<path d="M211.35,140.99c0-6.24,4.62-10.48,10.18-10.48c6.13,0,9.95,4.54,9.95,10.44v1.4h-14.46c0.04,2.61,1.97,4.2,4.58,4.2
				c1.82,0,3.56-0.72,4.31-2.38l4.92,1.13c-1.44,4.47-5.3,6.13-9.16,6.13C215.59,151.44,211.35,147.01,211.35,140.99z
				 M225.92,138.69c-0.26-2.01-2.04-3.59-4.39-3.59c-2.57,0-4.2,1.82-4.46,3.59H225.92z"/>
		</g>
	</g>
</g>
<g>
</g>
<g>
</g>
<g>
</g>
<g>
</g>
<g>
</g>
<g>
</g>
</svg>
