<?xml version="1.0" encoding="utf-8"?>
<!-- Generator: Adobe Illustrator 26.3.1, SVG Export Plug-In . SVG Version: 6.00 Build 0)  -->
<svg version="1.1" id="Calque_1" xmlns="http://www.w3.org/2000/svg" xmlns:xlink="http://www.w3.org/1999/xlink" x="0px" y="0px"
	 viewBox="0 0 1146.3 663.1" style="enable-background:new 0 0 1146.3 663.1;" xml:space="preserve">
<style type="text/css">
	.st0{fill:url(#SVGID_1_);}
	.st1{fill:url(#SVGID_00000046307625792566281300000015725877265675220626_);}
	.st2{fill:url(#SVGID_00000147198386582566190550000012004297450685074568_);}
	.st3{fill:url(#SVGID_00000045577759195833095990000001081408062412658611_);}
</style>
<radialGradient id="SVGID_1_" cx="297.493" cy="671.8076" r="1" gradientTransform="matrix(-798.7852 -136.7426 -136.7426 798.7852 330343.7188 -495486.5625)" gradientUnits="userSpaceOnUse">
	<stop  offset="0.2867" style="stop-color:#00C5FF;stop-opacity:0.25"/>
	<stop  offset="0.8515" style="stop-color:#00C5FF;stop-opacity:0.98"/>
	<stop  offset="1" style="stop-color:#00C5FF"/>
</radialGradient>
<path class="st0" d="M862,548.9c22.3-22.3,26.8-57.7,9.1-85.3c-20.4-31.8-62.7-41-94.5-20.6c-80.1,51.3-173.6,77.7-268.7,76
	c-48.9-1-97.3-9.5-143.6-25.2c-92.7-31.4-173.6-90.3-231.8-168.9c-22.4-30.4-65.3-36.8-95.7-14.4C6.5,333,0,375.8,22.5,406.2
	c37.3,50.5,82.2,95,133,131.9c50.3,36.6,105.9,65.3,164.9,85.3c122,41.4,254,43.4,377.2,5.5c54-16.5,105.4-40.3,152.9-70.7
	C854.7,555.5,858.5,552.4,862,548.9L862,548.9z"/>
<radialGradient id="SVGID_00000000936271000317799310000014658143559136850612_" cx="297.3694" cy="672.0293" r="1" gradientTransform="matrix(-576.244 579.2988 579.2988 576.244 -216880.5312 -559492.625)" gradientUnits="userSpaceOnUse">
	<stop  offset="0" style="stop-color:#00C5FF;stop-opacity:0.2"/>
	<stop  offset="0.7811" style="stop-color:#00C5FF;stop-opacity:0.98"/>
	<stop  offset="1" style="stop-color:#00C5FF;stop-opacity:0.98"/>
</radialGradient>
<path style="fill:url(#SVGID_00000000936271000317799310000014658143559136850612_);" d="M953.2,475.3c18.1-18.1,35-37.3,50.7-57.5
	c74.8-96.7,119.4-213.4,127.9-335.3c2.6-37.7-25.8-70.3-63.5-73c-37.7-2.6-70.3,25.8-73,63.5C988.6,168,954,258.8,895.8,334
	c-30,38.6-65.7,72.4-106,100.1c-39.9,27.5-83.7,48.8-130,63.3c-46.6,14.6-95.2,21.9-144,21.7c-37.8-0.1-68.5,30.4-68.6,68.1
	c-0.1,37.8,30.4,68.5,68.1,68.6c62.8,0.2,125.3-9.2,185.2-27.9c59.4-18.5,115.7-45.9,166.9-81.2
	C898.2,525.6,926.8,501.7,953.2,475.3z"/>
<radialGradient id="SVGID_00000044157957774018989300000015611215346743565719_" cx="297.6084" cy="671.457" r="1" gradientTransform="matrix(-297.468 -242.9914 -242.9908 297.4673 252118 -127045.2344)" gradientUnits="userSpaceOnUse">
	<stop  offset="0" style="stop-color:#00C5FF;stop-opacity:0.25"/>
	<stop  offset="0.7917" style="stop-color:#00C5FF"/>
	<stop  offset="1" style="stop-color:#00C5FF;stop-opacity:0.98"/>
</radialGradient>
<path style="fill:url(#SVGID_00000044157957774018989300000015611215346743565719_);" d="M586.4,452.9c6.8-6.8,12.1-15,15.6-24
	c3.4-9,4.9-18.6,4.4-28.3c-2.1-37.7-34.5-66.5-72.2-64.4c-61.1,3.5-121.9-12.1-173.8-44.6c-51.9-32.5-92.5-80.3-116.1-136.8
	c-14.6-34.8-54.6-51.3-89.5-36.7c-34.8,14.6-51.3,54.6-36.7,89.5c19.3,46.2,46.4,88.7,80.3,125.5c35,38.2,76.4,69.6,123,93.3
	c68.1,34.7,144.2,50.7,220.5,46.4C558.7,471.8,574.5,464.8,586.4,452.9z"/>
<radialGradient id="SVGID_00000178178574952970932160000007288608597503707580_" cx="297.2447" cy="672.0839" r="1" gradientTransform="matrix(-331.1993 449.8357 449.8357 331.1993 -202988.3281 -356195.5)" gradientUnits="userSpaceOnUse">
	<stop  offset="0" style="stop-color:#00C5FF;stop-opacity:0.25"/>
	<stop  offset="0.869" style="stop-color:#00C5FF;stop-opacity:0.98"/>
	<stop  offset="1" style="stop-color:#00C5FF;stop-opacity:0.98"/>
</radialGradient>
<path style="fill:url(#SVGID_00000178178574952970932160000007288608597503707580_);" d="M824.2,346.3
	c44.4-44.3,78.5-97.8,100.1-156.6c13-35.5-5.2-74.7-40.7-87.8c-35.5-13-74.7,5.2-87.8,40.7c-8.8,24-20.7,46.7-35.3,67.7
	C729.7,254,687.8,288.7,639,310.7c-23.6,10.6-48.4,18-73.9,22.2c-50.6,8.1-102.5,3.1-150.6-14.6c-35.4-13.1-74.8,5-87.9,40.5
	c-13.1,35.4,5,74.8,40.5,87.9c70.2,25.9,145.9,33.2,219.7,21.4c37.3-6,73.7-16.9,108.2-32.4c35.6-16.1,69-36.8,99-61.8
	C804.6,365,814.6,355.8,824.2,346.3z"/>
</svg>
