<?xml version="1.0" encoding="UTF-8"?><svg id="Calque_1" xmlns="http://www.w3.org/2000/svg" viewBox="0 0 24.35 16.07"><defs><style>.cls-1{fill:#979797;stroke:#979797;stroke-miterlimit:10;}</style></defs><path class="cls-1" d="M.5,2.47c.04-.15,.07-.29,.11-.44C.88,1.16,1.63,.6,2.63,.52c.18-.01,.36-.02,.55-.02,5.96,0,11.91,0,17.87,0,.43,0,.88,.06,1.3,.18,.92,.28,1.49,1.07,1.5,2.04,.01,.95,0,1.9,0,2.85,0,2.5-.02,5,0,7.5,.02,1.53-1.16,2.41-2.4,2.49-.14,0-.29,0-.43,0-5.96,0-11.93,0-17.89,0-.33,0-.67-.02-.99-.11-.88-.23-1.41-.82-1.6-1.72-.01-.05-.03-.1-.05-.15V2.47Zm.99,.1c0,.18-.02,.32-.02,.45,0,2.87,0,5.73,0,8.6,0,.51,0,1.02,0,1.53,0,.48,.11,.92,.55,1.21,.32,.21,.68,.24,1.05,.24,6,0,12.01,0,18.01,0,.11,0,.23,0,.34-.01,.75-.08,1.46-.49,1.46-1.49,0-3.38,0-6.76,0-10.15,0-.11-.02-.21-.04-.35-.11,.08-.18,.14-.25,.19-3.19,2.56-6.37,5.12-9.56,7.68-.35,.28-.52,.28-.87,.02-2.68-1.99-5.36-3.99-8.04-5.98-.86-.64-1.72-1.28-2.63-1.95Zm.51-.91v.08c.06,.04,.11,.09,.17,.13,3.39,2.52,6.79,5.05,10.18,7.58,.18,.14,.29,.12,.46-.01,2.54-2.05,5.09-4.1,7.63-6.14,.63-.5,1.25-1.01,1.89-1.52-.39-.25-.81-.3-1.24-.3-5.99,0-11.97,0-17.96,0-.11,0-.22-.01-.32,0-.27,.05-.54,.12-.81,.18Z"/></svg>