<?xml version="1.0" encoding="utf-8"?>
<!-- Generator: Adobe Illustrator 26.5.0, SVG Export Plug-In . SVG Version: 6.00 Build 0)  -->
<svg version="1.1" id="Calque_1" xmlns="http://www.w3.org/2000/svg" xmlns:xlink="http://www.w3.org/1999/xlink" x="0px" y="0px"
	 viewBox="0 0 24.4 16.1" style="enable-background:new 0 0 24.4 16.1;" xml:space="preserve">
<style type="text/css">
	.st0{fill:#979797;stroke:#979797;stroke-miterlimit:10;}
</style>
<path class="st0" d="M0.5,2.5c0-0.2,0.1-0.3,0.1-0.4c0.3-0.9,1-1.4,2-1.5c0.2,0,0.4,0,0.5,0c6,0,11.9,0,17.9,0
	c0.4,0,0.9,0.1,1.3,0.2c0.9,0.3,1.5,1.1,1.5,2c0,1,0,1.9,0,2.8c0,2.5,0,5,0,7.5c0,1.5-1.2,2.4-2.4,2.5c-0.1,0-0.3,0-0.4,0
	c-6,0-11.9,0-17.9,0c-0.3,0-0.7,0-1-0.1c-0.9-0.2-1.4-0.8-1.6-1.7c0-0.1,0-0.1-0.1-0.1L0.5,2.5L0.5,2.5z M1.5,2.6c0,0.2,0,0.3,0,0.5
	c0,2.9,0,5.7,0,8.6c0,0.5,0,1,0,1.5c0,0.5,0.1,0.9,0.5,1.2c0.3,0.2,0.7,0.2,1,0.2c6,0,12,0,18,0c0.1,0,0.2,0,0.3,0
	c0.8-0.1,1.5-0.5,1.5-1.5c0-3.4,0-6.8,0-10.1c0-0.1,0-0.2,0-0.3c-0.1,0.1-0.2,0.1-0.2,0.2c-3.2,2.6-6.4,5.1-9.6,7.7
	c-0.4,0.3-0.5,0.3-0.9,0c-2.7-2-5.4-4-8-6C3.3,3.9,2.4,3.2,1.5,2.6L1.5,2.6z M2,1.7L2,1.7c0.1,0.1,0.1,0.2,0.2,0.2
	C5.6,4.4,9,6.9,12.4,9.4c0.2,0.1,0.3,0.1,0.5,0c2.5-2.1,5.1-4.1,7.6-6.1c0.6-0.5,1.2-1,1.9-1.5c-0.4-0.2-0.8-0.3-1.2-0.3
	c-6,0-12,0-18,0c-0.1,0-0.2,0-0.3,0C2.5,1.5,2.3,1.6,2,1.7z"/>
</svg>
