<?xml version="1.0" encoding="utf-8"?>
<!-- Generator: Adobe Illustrator 26.5.0, SVG Export Plug-In . SVG Version: 6.00 Build 0)  -->
<svg version="1.1" id="Calque_1" xmlns="http://www.w3.org/2000/svg" xmlns:xlink="http://www.w3.org/1999/xlink" x="0px" y="0px"
	 viewBox="0 0 1024 600" style="enable-background:new 0 0 1024 600;" xml:space="preserve">
<style type="text/css">
	.st0{fill:#004BFF;}
	.st1{fill:#FFFFFF;}
	.st2{fill:#08588A;}
	.st3{fill:#F3FAFC;}
	.st4{fill:#E1F9FD;}
	.st5{fill:none;stroke:#08588A;stroke-width:10;stroke-miterlimit:10;}
</style>
<path class="st0" d="M512-1.5H0v128.2h0l0.6,473h512H530h494v-512V-1.5H512z M40.1,548.3V138c0-6.2,5-11.2,11.2-11.2h409.2
	c6.2,0,11.2,5,11.2,11.2v410.4c0,6.2-5,11.2-11.2,11.2H51.4C45.2,559.6,40.1,554.5,40.1,548.3z M972.6,559.6H563.4
	c-6.2,0-11.2-5-11.2-11.2V138c0-6.2,5-11.2,11.2-11.2h409.2c6.2,0,11.2,5,11.2,11.2v410.4C983.9,554.5,978.8,559.6,972.6,559.6z"/>
<g>
	<path class="st1" d="M95.1,49.4h26.4v8.4H104V67h16.3v8.3H104v16h-8.9V49.4z"/>
	<path class="st1" d="M128.1,49.4h14.5c8.8,0,15,5.3,15,13.1c0,5.6-2.6,10-7.5,12.3l9.2,16.6H149l-7.7-15.2H137v15.2h-8.9V49.4z
		 M142.7,68.1c3.2,0,5.6-1.9,5.6-5.4c0-2.7-1.9-5-5.9-5H137v10.4H142.7z"/>
	<path class="st1" d="M162.5,70.3c0-12.3,9.4-21.7,21.9-21.7c12.7,0,21.9,9.5,21.9,21.7c0,12.3-9.3,21.8-21.9,21.8
		C171.8,92.2,162.5,82.7,162.5,70.3z M197.1,70.3c0-7.5-5.5-13.1-12.7-13.1c-7.3,0-12.7,5.6-12.7,13.1c0,7.6,5.3,13.2,12.7,13.2
		C191.6,83.5,197.1,77.9,197.1,70.3z"/>
	<path class="st1" d="M212.9,49.4h15.2l9.7,33h0.6v-33h8.9v42H232l-9.5-33h-0.7v33h-8.9V49.4z"/>
	<path class="st1" d="M264.3,57.8h-11.2v-8.4h31.3v8.4h-11.2v33.6h-8.9V57.8z"/>
	<path class="st1" d="M305.1,49.4h26.4v8.4H314v8.1h15.1v8.3H314V83h18.1v8.3h-27V49.4z"/>
	<path class="st1" d="M338.7,49.4h15.2l9.7,33h0.6v-33h8.9v42h-15.4l-9.5-33h-0.7v33h-8.9V49.4z"/>
	<path class="st1" d="M380.6,83.7h3.6V57.1h-3.6v-7.7h16.5c13.6,0,21.4,8.8,21.4,21c0,13-7.7,21-21.4,21h-16.5V83.7z M397.1,83.3
		c7.7,0,12.1-4.9,12.1-13c0-7.7-4.4-12.9-12.1-12.9H393v25.9H397.1z"/>
</g>
<g>
	<path class="st1" d="M621.3,83.7h3.6V57h-3.6v-7.7h18.8c8.7,0,13.3,5.2,13.3,11.8c0,3.2-1.9,6.2-4.5,7.7v0.4c3,1.4,5.8,4.6,5.8,9.2
		c0,8.2-6.3,12.9-13.4,12.9h-20.1V83.7z M640,66.1c2.7,0,4.5-1.9,4.5-4.4c0-2.4-1.9-4.3-4.5-4.3h-6.5v8.6H640z M640.2,83.3
		c3.1,0,5.5-2,5.5-5.1c0-3.1-2.5-5-5.5-5h-6.6v10.1H640.2z"/>
	<path class="st1" d="M685.7,83h-16.5l-2.7,8.4h-9.6l14.2-42h12.6l14.1,42h-9.4L685.7,83z M683,74.8l-5.3-16.4H677l-5.3,16.4H683z"
		/>
	<path class="st1" d="M699.3,70.4c0-12.3,8.9-21.8,21.7-21.8c9.6,0,17.7,5.5,20.5,15.5H732c-1.9-4.4-6.2-6.8-11-6.8
		c-7.2,0-12.5,5.6-12.5,13.1c0,7.6,5.3,13.1,12.5,13.1c4.6,0,9-2.2,11-6.8h9.5c-2.8,10.1-10.9,15.5-20.5,15.5
		C708.2,92.2,699.3,82.7,699.3,70.4z"/>
	<path class="st1" d="M747.8,49.4h8.9v16.1h4.2l9.4-16.1h10.9l-12.6,20.2l13.1,21.8h-11l-9.9-17.5h-4.1v17.5h-8.9V49.4z"/>
	<path class="st1" d="M802.2,49.4h26.4v8.4h-17.5v8.1h15.1v8.3h-15.1V83h18.1v8.3h-27V49.4z"/>
	<path class="st1" d="M835.8,49.4H851l9.7,33h0.6v-33h8.9v42h-15.4l-9.5-33h-0.7v33h-8.9V49.4z"/>
	<path class="st1" d="M877.7,83.7h3.6V57h-3.6v-7.7h16.5c13.6,0,21.4,8.8,21.4,21c0,13-7.7,21-21.4,21h-16.5V83.7z M894.2,83.3
		c7.7,0,12.1-4.9,12.1-13c0-7.7-4.4-12.9-12.1-12.9h-4.1v25.9H894.2z"/>
</g>
<g>
	<path class="st2" d="M674.1,351c0-43.7,0-87.3,0-131c0-9.9,1-10.9,11.1-10.9c55.8,0,111.7,0,167.5,0c8.8,0,10.2,1.5,10.2,10.4
		c0,87.1,0,174.2,0,261.4c0,10.3-0.7,11-10.8,11c-55.8,0-111.7,0-167.5,0c-9.6,0-10.5-0.9-10.5-10.7C674,437.9,674,394.5,674.1,351
		C674,351,674,351,674.1,351z M768.2,444.8C768.2,444.8,768.2,444.8,768.2,444.8c25.6,0,51.2-0.1,76.8,0.1c4.4,0,5.9-1.1,5.8-5.6
		c-0.3-11.9-0.2-23.8,0-35.6c0.1-3.9-0.7-5.6-5.2-5.6c-51.4,0.2-102.9,0.2-154.3,0c-4.8,0-5.6,1.8-5.5,6c0.2,11.4,0.5,22.9,0,34.3
		c-0.3,5.8,1.9,6.7,7,6.6C717.9,444.7,743.1,444.8,768.2,444.8z M768.1,385.8C768.1,385.8,768.1,385.8,768.1,385.8
		c25.6,0,51.2,0,76.8,0.1c4.1,0,6.1-0.6,6-5.5c-0.4-12.1-0.3-24.2,0-36.3c0.1-3.9-1.1-5-5-5c-51.7,0.1-103.3,0.1-155-0.1
		c-3.9,0-5.1,1.2-5,5.1c0.2,11.9,0.3,23.8,0,35.6c-0.1,4.8,1.2,6.2,6.1,6.1C717.3,385.7,742.7,385.8,768.1,385.8z M768.8,280.2
		c-25.6,0-51.2,0.1-76.9-0.1c-4.8,0-6.3,1.2-6.1,6.1c0.3,11.9,0.2,23.8,0,35.7c-0.1,3.7,0.9,5.2,4.9,5.2c51.7-0.1,103.4-0.1,155.1,0
		c4,0,5.1-1.2,5-5c-0.2-11.9-0.4-23.8,0-35.6c0.2-5.4-1.7-6.3-6.6-6.2C819.1,280.4,794,280.2,768.8,280.2z M768.4,268
		C768.4,268,768.4,268,768.4,268c25.4-0.1,50.8-0.2,76.1,0c5.2,0.1,6.6-1.5,6.4-6.5c-0.4-11.6-0.3-23.3,0-35c0.1-4-0.8-5.5-5.2-5.5
		c-51.5,0.2-102.9,0.1-154.4,0c-4.3,0-5.5,1.4-5.4,5.5c0.2,11.4,0.4,22.9,0,34.3c-0.2,5.6,1.2,7.4,7.1,7.3
		C718.1,267.9,743.2,268,768.4,268z M768.2,480.3C768.2,480.3,768.2,480.3,768.2,480.3c22.4,0,44.8,0,67.1,0
		c15.5,0,15.1,0,15.6-15.7c0.2-6.6-2.1-7.8-8-7.8c-46.6,0.2-93.2,0.1-139.8,0.1c-17.5,0-17.3,0-17.3,17.5c0,5,1.7,6,6.3,6
		C717.5,480.2,742.8,480.3,768.2,480.3z"/>
	<path class="st3" d="M768.2,444.8c-25.2,0-50.3-0.1-75.5,0.1c-5.1,0-7.2-0.8-7-6.6c0.5-11.4,0.3-22.8,0-34.3c-0.1-4.2,0.8-6,5.5-6
		c51.4,0.2,102.9,0.1,154.3,0c4.5,0,5.2,1.7,5.2,5.6c-0.2,11.9-0.3,23.8,0,35.6c0.1,4.6-1.4,5.7-5.8,5.6
		C819.5,444.7,793.8,444.8,768.2,444.8C768.2,444.8,768.2,444.8,768.2,444.8z M745.5,421.4c-11.4,0-22.8,0.1-34.3,0
		c-4.2,0-7.5,1.2-7.4,5.9c0.1,4.7,3.6,5.8,7.7,5.8c22.4,0,44.8,0,67.2,0c4.1,0,7.5-1.2,7.4-6c-0.1-4.8-3.6-5.7-7.6-5.7
		C767.4,421.4,756.5,421.4,745.5,421.4z M833.2,421.2c-0.1-10.1-7.9-17.7-17.9-17.5c-9.9,0.2-17.5,8.2-17.3,18.2
		c0.2,9.5,8,17.2,17.6,17.2C825.4,439.1,833.3,431.1,833.2,421.2z"/>
	<path class="st3" d="M768.1,385.8c-25.4,0-50.8-0.1-76.1,0.1c-4.9,0-6.2-1.4-6.1-6.1c0.3-11.9,0.2-23.8,0-35.6
		c-0.1-3.9,1.1-5.1,5-5.1c51.7,0.1,103.3,0.2,155,0.1c3.9,0,5.1,1.1,5,5c-0.2,12.1-0.3,24.2,0,36.3c0.1,4.9-1.8,5.5-6,5.5
		C819.3,385.8,793.7,385.8,768.1,385.8C768.1,385.8,768.1,385.8,768.1,385.8z M744.4,374.1C744.4,374.1,744.4,374.2,744.4,374.1
		c10.7,0.1,21.5,0.1,32.2,0c4.4,0,9.5,0.3,9.4-6c-0.1-5.8-4.8-5.7-9-5.7c-21.5,0-43,0.1-64.4,0c-4.5,0-8.7,0.4-8.7,6.1
		c0.1,5.3,4.2,5.6,8.4,5.6C722.9,374.1,733.7,374.1,744.4,374.1z M798,362.3c0,9.9,7.9,17.9,17.6,17.9c9.8,0,17.7-8.1,17.6-17.9
		c-0.1-9.5-7.8-17.4-17.3-17.6C806.1,344.5,798,352.5,798,362.3z"/>
	<path class="st3" d="M768.8,280.2c25.2,0,50.3,0.2,75.5-0.1c4.9-0.1,6.8,0.8,6.6,6.2c-0.4,11.9-0.2,23.8,0,35.6c0.1,3.8-1,5-5,5
		c-51.7-0.1-103.4-0.1-155.1,0c-4,0-5-1.5-4.9-5.2c0.2-11.9,0.3-23.8,0-35.7c-0.1-4.8,1.3-6.1,6.1-6.1
		C717.6,280.3,743.2,280.2,768.8,280.2z M745.5,303.5c-11,0-21.9,0.1-32.9,0c-4.5,0-8.7,0.5-8.8,6.1c0,5.3,4.2,5.9,8.3,5.9
		c21.9,0,43.9,0.1,65.8,0.1c4.2,0,8.1-0.9,8.1-6.2c-0.1-5.3-4.1-5.9-8.2-5.8C767,303.5,756.2,303.5,745.5,303.5z M833.3,303.3
		c-0.1-9.5-7.9-17.3-17.4-17.4c-9.9-0.1-17.9,7.7-17.9,17.6c0,9.8,7.9,17.8,17.7,17.8C825.4,321.3,833.3,313.2,833.3,303.3z"/>
	<path class="st3" d="M768.4,268c-25.2,0-50.3-0.2-75.5,0.1c-5.9,0.1-7.3-1.7-7.1-7.3c0.4-11.4,0.3-22.9,0-34.3
		c-0.1-4.1,1.1-5.5,5.4-5.5c51.5,0.1,102.9,0.2,154.4,0c4.5,0,5.3,1.5,5.2,5.5c-0.2,11.7-0.3,23.3,0,35c0.2,5.1-1.2,6.6-6.4,6.5
		C819.1,267.8,793.7,268,768.4,268C768.4,268,768.4,268,768.4,268z M744.8,256.6c11,0,22,0,32.9,0c4.3,0,8.2-0.8,8.3-5.9
		c0.1-5.2-3.9-6.1-8.1-6.1c-22,0-43.9,0-65.9,0c-4.3,0-8.2,0.8-8.3,5.9c-0.1,5,3.7,6.1,8.1,6.1C722.8,256.5,733.8,256.6,744.8,256.6
		z M815.9,226.9c-10,0-17.8,7.7-17.8,17.7c0,10,7.7,17.8,17.7,17.8c9.9,0,17.6-7.9,17.5-18C833.1,234.8,825.4,227,815.9,226.9z"/>
	<path class="st3" d="M768.2,480.3c-25.4,0-50.7-0.1-76.1,0.1c-4.6,0-6.3-1-6.3-6c0-17.5-0.2-17.5,17.3-17.5
		c46.6,0,93.2,0.1,139.8-0.1c5.9,0,8.2,1.2,8,7.8c-0.6,15.7-0.2,15.7-15.6,15.7C812.9,480.3,790.6,480.3,768.2,480.3
		C768.2,480.3,768.2,480.3,768.2,480.3z"/>
	<path class="st2" d="M745.5,421.4c11,0,21.9,0,32.9,0c4.1,0,7.6,0.9,7.6,5.7c0.1,4.8-3.3,6-7.4,6c-22.4,0-44.8,0-67.2,0
		c-4.1,0-7.6-1.1-7.7-5.8c-0.1-4.7,3.2-6,7.4-5.9C722.6,421.5,734.1,421.4,745.5,421.4z"/>
	<path class="st2" d="M833.2,421.2c0.1,9.9-7.8,18-17.5,17.9c-9.6-0.1-17.4-7.7-17.6-17.2c-0.2-10,7.4-18,17.3-18.2
		C825.2,403.5,833,411.1,833.2,421.2z M816.2,415.5c-3.9,0.2-6.2,2.3-6.3,5.6c-0.1,3.6,2.1,6.1,6,5.9c3.5-0.1,5.5-2.4,5.5-5.8
		C821.3,417.8,819.1,416,816.2,415.5z"/>
	<path class="st2" d="M744.4,374.1c-10.7,0-21.5-0.1-32.2,0c-4.2,0-8.3-0.3-8.4-5.6c-0.1-5.7,4.2-6.1,8.7-6.1c21.5,0.1,43,0,64.4,0
		c4.3,0,8.9-0.1,9,5.7c0.1,6.4-5,6-9.4,6C765.9,374.2,755.1,374.2,744.4,374.1C744.4,374.2,744.4,374.1,744.4,374.1z"/>
	<path class="st2" d="M798,362.3c0-9.9,8.1-17.8,17.9-17.6c9.5,0.2,17.3,8,17.3,17.6c0.1,9.8-7.8,17.9-17.6,17.9
		C805.9,380.2,798,372.2,798,362.3z M815.8,356.9c-3.7-0.2-5.8,2.1-5.9,5.3c-0.1,3.1,1.6,5.8,5.3,6c3.8,0.2,6.2-2,6.3-5.7
		C821.4,359.1,819.4,357,815.8,356.9z"/>
	<path class="st2" d="M745.5,303.5c10.7,0,21.5,0,32.2,0c4.2,0,8.2,0.5,8.2,5.8c0.1,5.3-3.9,6.2-8.1,6.2c-21.9,0-43.9,0-65.8-0.1
		c-4.1,0-8.3-0.6-8.3-5.9c0-5.6,4.3-6.1,8.8-6.1C723.5,303.6,734.5,303.5,745.5,303.5z"/>
	<path class="st2" d="M833.3,303.3c0.1,9.9-7.9,18-17.6,18c-9.8,0-17.7-8-17.7-17.8c0-9.9,8-17.7,17.9-17.6
		C825.4,286,833.2,293.8,833.3,303.3z M821.5,303.3c-0.8-3.2-2.4-5.4-6-5.3c-3.5,0.1-5.7,2.1-5.6,5.6c0.1,3.6,2.2,5.9,6.2,5.7
		C819.8,309,821.1,306.6,821.5,303.3z"/>
	<path class="st2" d="M744.8,256.6c-11,0-22,0-32.9,0c-4.4,0-8.2-1.1-8.1-6.1c0.1-5.1,4-5.9,8.3-5.9c22,0,43.9,0,65.9,0
		c4.2,0,8.2,0.9,8.1,6.1c-0.1,5.1-4,5.9-8.3,5.9C766.8,256.6,755.8,256.6,744.8,256.6z"/>
	<path class="st2" d="M815.9,226.9c9.5,0,17.2,7.8,17.3,17.5c0.1,10.1-7.6,18-17.5,18c-10,0-17.7-7.8-17.7-17.8
		C798.1,234.6,805.8,226.9,815.9,226.9z M816.6,250.3c2.8-0.4,4.9-2.4,4.8-5.8c-0.1-3.4-2.2-5.5-5.7-5.4c-3.8,0.1-6.1,2.3-5.8,6.1
		C810.2,248.5,812.4,250.4,816.6,250.3z"/>
	<path class="st4" d="M816.2,415.5c2.9,0.4,5.1,2.3,5.2,5.7c0,3.4-2,5.6-5.5,5.8c-3.9,0.1-6.1-2.3-6-5.9
		C810,417.8,812.3,415.8,816.2,415.5z"/>
	<path class="st4" d="M815.8,356.9c3.6,0.2,5.6,2.2,5.6,5.6c-0.1,3.7-2.4,5.8-6.3,5.7c-3.7-0.2-5.4-2.9-5.3-6
		C810,358.9,812.1,356.7,815.8,356.9z"/>
	<path class="st4" d="M821.5,303.3c-0.4,3.3-1.7,5.7-5.4,5.9c-4,0.2-6.1-2.1-6.2-5.7c-0.1-3.4,2-5.5,5.6-5.6
		C819.1,297.8,820.8,300.1,821.5,303.3z"/>
	<path class="st4" d="M816.6,250.3c-4.2,0-6.4-1.8-6.7-5.1c-0.3-3.8,2-6,5.8-6.1c3.5-0.1,5.6,2,5.7,5.4
		C821.5,247.9,819.4,249.9,816.6,250.3z"/>
</g>
<path class="st5" d="M384.9,222h-258c-10.6,0-19.2,8.6-19.2,19.2v152.6c0,10.6,8.6,19.2,19.2,19.2h99c3.3,0,5.9,2.9,5.5,6.2
	c-5.4,44.1-27.8,59.9-36.7,64.4c-0.8,0.4-0.5,1.6,0.4,1.6h66.8h0.1h66.8c0.9,0,1.2-1.2,0.4-1.6c-8.9-4.6-31.2-20.3-36.7-64.4
	c-0.4-3.3,2.2-6.2,5.5-6.2h87.1c10.6,0,19.2-8.6,19.2-19.2V241.2C404.1,230.6,395.5,222,384.9,222z"/>
<g>
	<path class="st2" d="M385.1,262.5h-259c-2.5,0-4.5-2-4.5-4.5v-16.1c0-2.5,2-4.5,4.5-4.5h259c2.5,0,4.5,2,4.5,4.5V258
		C389.6,260.5,387.6,262.5,385.1,262.5z"/>
	<path class="st2" d="M169.1,393.8h-43.7c-2.1,0-3.8-1.7-3.8-3.8V280.2c0-2.1,1.7-3.8,3.8-3.8h43.7c2.1,0,3.8,1.7,3.8,3.8V390
		C172.9,392.1,171.2,393.8,169.1,393.8z"/>
	<path class="st2" d="M236.1,278.6v9.1c0,1.1-0.9,2-2,2h-46.9c-1.1,0-2-0.9-2-2v-9.1c0-1.1,0.9-2,2-2h46.9
		C235.2,276.7,236.1,277.6,236.1,278.6z"/>
	<path class="st2" d="M262.2,278.8v8.8c0,1.2-0.9,2.1-2.1,2.1h-17.4c-1.2,0-2.1-0.9-2.1-2.1v-8.8c0-1.2,0.9-2.1,2.1-2.1h17.4
		C261.3,276.7,262.2,277.6,262.2,278.8z"/>
	<path class="st2" d="M316,278.5v9.4c0,1-0.8,1.8-1.8,1.8h-45.9c-1,0-1.8-0.8-1.8-1.8v-9.4c0-1,0.8-1.8,1.8-1.8h45.9
		C315.2,276.7,316,277.5,316,278.5z"/>
	<path class="st2" d="M352.8,279.3v7.9c0,1.4-1.2,2.6-2.6,2.6h-27.1c-1.4,0-2.6-1.2-2.6-2.6v-7.9c0-1.4,1.2-2.6,2.6-2.6h27.1
		C351.7,276.7,352.8,277.8,352.8,279.3z"/>
	<path class="st2" d="M390.1,279v8.4c0,1.3-1,2.3-2.3,2.3h-27.7c-1.3,0-2.3-1-2.3-2.3V279c0-1.3,1-2.3,2.3-2.3h27.7
		C389.1,276.7,390.1,277.7,390.1,279z"/>
	<path class="st2" d="M236.1,349v9.1c0,1.1-0.9,2-2,2h-46.9c-1.1,0-2-0.9-2-2V349c0-1.1,0.9-2,2-2h46.9
		C235.2,347,236.1,347.9,236.1,349z"/>
	<path class="st2" d="M262.2,349.1v8.8c0,1.2-0.9,2.1-2.1,2.1h-17.4c-1.2,0-2.1-0.9-2.1-2.1v-8.8c0-1.2,0.9-2.1,2.1-2.1h17.4
		C261.3,347,262.2,348,262.2,349.1z"/>
	<path class="st2" d="M316,348.8v9.4c0,1-0.8,1.8-1.8,1.8h-45.9c-1,0-1.8-0.8-1.8-1.8v-9.4c0-1,0.8-1.8,1.8-1.8h45.9
		C315.2,347,316,347.8,316,348.8z"/>
	<path class="st2" d="M352.8,349.6v7.9c0,1.4-1.2,2.6-2.6,2.6h-27.1c-1.4,0-2.6-1.2-2.6-2.6v-7.9c0-1.4,1.2-2.6,2.6-2.6h27.1
		C351.7,347,352.8,348.2,352.8,349.6z"/>
	<path class="st2" d="M390.1,349.3v8.4c0,1.3-1,2.3-2.3,2.3h-27.7c-1.3,0-2.3-1-2.3-2.3v-8.4c0-1.3,1-2.3,2.3-2.3h27.7
		C389.1,347,390.1,348,390.1,349.3z"/>
	<path class="st2" d="M339.3,341.1V332c0-1.1,0.9-2,2-2h46.9c1.1,0,2,0.9,2,2v9.1c0,1.1-0.9,2-2,2l-46.9,0
		C340.2,343.1,339.3,342.2,339.3,341.1z"/>
	<path class="st2" d="M313.2,340.9v-8.8c0-1.2,0.9-2.1,2.1-2.1l17.4,0c1.2,0,2.1,0.9,2.1,2.1v8.8c0,1.2-0.9,2.1-2.1,2.1h-17.4
		C314.2,343.1,313.2,342.1,313.2,340.9z"/>
	<path class="st2" d="M259.4,341.2v-9.4c0-1,0.8-1.8,1.8-1.8h45.9c1,0,1.8,0.8,1.8,1.8v9.4c0,1-0.8,1.8-1.8,1.8l-45.9,0
		C260.3,343.1,259.4,342.2,259.4,341.2z"/>
	<path class="st2" d="M222.6,340.5v-7.9c0-1.4,1.2-2.6,2.6-2.6h27.1c1.4,0,2.6,1.2,2.6,2.6l0,7.9c0,1.4-1.2,2.6-2.6,2.6h-27.1
		C223.8,343.1,222.6,341.9,222.6,340.5z"/>
	<path class="st2" d="M185.3,340.7v-8.4c0-1.3,1-2.3,2.3-2.3h27.7c1.3,0,2.3,1,2.3,2.3v8.4c0,1.3-1,2.3-2.3,2.3h-27.7
		C186.3,343.1,185.3,342,185.3,340.7z"/>
	<path class="st2" d="M236.1,382.7v9.1c0,1.1-0.9,2-2,2h-46.9c-1.1,0-2-0.9-2-2v-9.1c0-1.1,0.9-2,2-2h46.9
		C235.2,380.7,236.1,381.6,236.1,382.7z"/>
	<path class="st2" d="M262.2,382.9v8.8c0,1.2-0.9,2.1-2.1,2.1h-17.4c-1.2,0-2.1-0.9-2.1-2.1v-8.8c0-1.2,0.9-2.1,2.1-2.1h17.4
		C261.3,380.7,262.2,381.7,262.2,382.9z"/>
	<path class="st2" d="M316,382.6v9.4c0,1-0.8,1.8-1.8,1.8h-45.9c-1,0-1.8-0.8-1.8-1.8v-9.4c0-1,0.8-1.8,1.8-1.8h45.9
		C315.2,380.7,316,381.6,316,382.6z"/>
	<path class="st2" d="M352.8,383.3v7.9c0,1.4-1.2,2.6-2.6,2.6h-27.1c-1.4,0-2.6-1.2-2.6-2.6v-7.9c0-1.4,1.2-2.6,2.6-2.6h27.1
		C351.7,380.7,352.8,381.9,352.8,383.3z"/>
	<path class="st2" d="M390.1,383.1v8.4c0,1.3-1,2.3-2.3,2.3h-27.7c-1.3,0-2.3-1-2.3-2.3v-8.4c0-1.3,1-2.3,2.3-2.3h27.7
		C389.1,380.7,390.1,381.8,390.1,383.1z"/>
	<path class="st2" d="M339.3,374.8v-9.1c0-1.1,0.9-2,2-2h46.9c1.1,0,2,0.9,2,2v9.1c0,1.1-0.9,2-2,2l-46.9,0
		C340.2,376.8,339.3,375.9,339.3,374.8z"/>
	<path class="st2" d="M313.2,374.7v-8.8c0-1.2,0.9-2.1,2.1-2.1h17.4c1.2,0,2.1,0.9,2.1,2.1v8.8c0,1.2-0.9,2.1-2.1,2.1h-17.4
		C314.2,376.8,313.2,375.8,313.2,374.7z"/>
	<path class="st2" d="M259.4,375v-9.4c0-1,0.8-1.8,1.8-1.8h45.9c1,0,1.8,0.8,1.8,1.8v9.4c0,1-0.8,1.8-1.8,1.8h-45.9
		C260.3,376.8,259.4,376,259.4,375z"/>
	<path class="st2" d="M222.6,374.2v-7.9c0-1.4,1.2-2.6,2.6-2.6h27.1c1.4,0,2.6,1.2,2.6,2.6l0,7.9c0,1.4-1.2,2.6-2.6,2.6h-27.1
		C223.8,376.8,222.6,375.6,222.6,374.2z"/>
	<path class="st2" d="M185.3,374.5V366c0-1.3,1-2.3,2.3-2.3h27.7c1.3,0,2.3,1,2.3,2.3v8.4c0,1.3-1,2.3-2.3,2.3h-27.7
		C186.3,376.8,185.3,375.8,185.3,374.5z"/>
	<path class="st2" d="M339.3,304.6v-9.1c0-1.1,0.9-2,2-2l46.9,0c1.1,0,2,0.9,2,2v9.1c0,1.1-0.9,2-2,2h-46.9
		C340.2,306.6,339.3,305.7,339.3,304.6z"/>
	<path class="st2" d="M313.2,304.5v-8.8c0-1.2,0.9-2.1,2.1-2.1h17.4c1.2,0,2.1,0.9,2.1,2.1v8.8c0,1.2-0.9,2.1-2.1,2.1l-17.4,0
		C314.2,306.6,313.2,305.7,313.2,304.5z"/>
	<path class="st2" d="M259.4,304.8v-9.4c0-1,0.8-1.8,1.8-1.8l45.9,0c1,0,1.8,0.8,1.8,1.8v9.4c0,1-0.8,1.8-1.8,1.8h-45.9
		C260.3,306.6,259.4,305.8,259.4,304.8z"/>
	<path class="st2" d="M222.6,304v-7.9c0-1.4,1.2-2.6,2.6-2.6h27.1c1.4,0,2.6,1.2,2.6,2.6l0,7.9c0,1.4-1.2,2.6-2.6,2.6l-27.1,0
		C223.8,306.6,222.6,305.4,222.6,304z"/>
	<path class="st2" d="M185.3,304.3v-8.4c0-1.3,1-2.3,2.3-2.3l27.7,0c1.3,0,2.3,1,2.3,2.3v8.4c0,1.3-1,2.3-2.3,2.3h-27.7
		C186.3,306.6,185.3,305.6,185.3,304.3z"/>
	<path class="st2" d="M236.1,313.7v9.1c0,1.1-0.9,2-2,2h-46.9c-1.1,0-2-0.9-2-2v-9.1c0-1.1,0.9-2,2-2l46.9,0
		C235.2,311.8,236.1,312.7,236.1,313.7z"/>
</g>
</svg>
