<?xml version="1.0" encoding="utf-8"?>
<!-- Generator: Adobe Illustrator 26.5.0, SVG Export Plug-In . SVG Version: 6.00 Build 0)  -->
<svg version="1.1" id="Calque_1" xmlns="http://www.w3.org/2000/svg" xmlns:xlink="http://www.w3.org/1999/xlink" x="0px" y="0px"
	 viewBox="0 0 140 24.9" style="enable-background:new 0 0 140 24.9;" xml:space="preserve">
<style type="text/css">
	.st0{clip-path:url(#SVGID_00000160160226223171593860000007319541146680996484_);}
	.st1{fill:url(#SVGID_00000152235683845360837470000010831474751291674553_);}
	.st2{fill:url(#SVGID_00000035489924126670717430000009058239829543862682_);}
	.st3{fill:url(#SVGID_00000107572281644324346710000008950575532988753805_);}
	.st4{fill:url(#SVGID_00000106125682401143035670000001395611179643793343_);}
	.st5{fill:url(#SVGID_00000137815005707142604300000005489492776414416562_);}
	.st6{fill:url(#SVGID_00000058566822051600303200000011693793742447913374_);}
	.st7{enable-background:new    ;}
</style>
<g>
	<g>
		<defs>
			<rect id="SVGID_1_" x="-6.8" width="24.9" height="24.9"/>
		</defs>
		<clipPath id="SVGID_00000101782637740975271860000004675096420932919954_">
			<use xlink:href="#SVGID_1_"  style="overflow:visible;"/>
		</clipPath>
		<g style="clip-path:url(#SVGID_00000101782637740975271860000004675096420932919954_);">
			
				<radialGradient id="SVGID_00000081629106413329105700000004036241728351692677_" cx="-338.6383" cy="10.6208" r="0.6232" gradientTransform="matrix(15.4521 1.722 1.7217 -15.4497 5227.3105 767.3192)" gradientUnits="userSpaceOnUse">
				<stop  offset="0.15" style="stop-color:#004BFF"/>
				<stop  offset="1" style="stop-color:#004BFF;stop-opacity:0.1"/>
			</radialGradient>
			<path style="fill:url(#SVGID_00000081629106413329105700000004036241728351692677_);" d="M4.8,24.5c-0.4-0.1-0.7-0.2-1-0.6
				s-0.4-0.7-0.4-1.1c0-0.4,0.2-0.7,0.5-1.1c0.3-0.2,0.7-0.4,1.1-0.4c2.5,0,4.9-0.9,6.9-2.5c0.1-0.1,0.3-0.2,0.5-0.3
				s0.4-0.1,0.6-0.1c0.2,0,0.4,0.1,0.6,0.2c0.2,0.1,0.3,0.2,0.5,0.4c0.1,0.1,0.2,0.3,0.3,0.5s0.1,0.4,0.1,0.6c0,0.2-0.1,0.4-0.2,0.6
				c-0.1,0.2-0.2,0.3-0.4,0.5c-2.5,2.1-5.6,3.2-8.8,3.2C4.9,24.6,4.9,24.6,4.8,24.5L4.8,24.5z"/>
			
				<radialGradient id="SVGID_00000126294435480966670010000000639065370080416896_" cx="-394.1399" cy="28.6692" r="0.6232" gradientTransform="matrix(-9.518751e-16 -15.5453 -15.5478 9.520282e-16 458.6205 -6122.1436)" gradientUnits="userSpaceOnUse">
				<stop  offset="0.15" style="stop-color:#004BFF"/>
				<stop  offset="1" style="stop-color:#004BFF;stop-opacity:0.1"/>
			</radialGradient>
			<path style="fill:url(#SVGID_00000126294435480966670010000000639065370080416896_);" d="M18.2,12.5c0,0.4-0.1,0.8-0.4,1.1
				c-0.2,0.3-0.6,0.4-1.1,0.5c-0.4,0-0.8-0.1-1.1-0.4C15.2,13.4,15,13,15,12.6c-0.2-2.5-1.4-4.8-3.2-6.5c-0.1-0.1-0.2-0.3-0.4-0.5
				c-0.1-0.2-0.1-0.4-0.1-0.6s0-0.4,0.1-0.6c0.1-0.2,0.2-0.4,0.3-0.5c0.2-0.1,0.4-0.2,0.6-0.3c0.2-0.1,0.4-0.1,0.6-0.1
				c0.2,0,0.4,0,0.6,0.1c0.2,0.1,0.4,0.2,0.5,0.3c2.4,2.2,3.9,5.2,4.2,8.5C18.2,12.3,18.2,12.4,18.2,12.5L18.2,12.5z"/>
			
				<radialGradient id="SVGID_00000133503961804205239010000004656339356278015934_" cx="-394.5506" cy="58.1216" r="0.6232" gradientTransform="matrix(-10.994 -10.9922 -10.9922 10.994 -3693.9724 -4973.9292)" gradientUnits="userSpaceOnUse">
				<stop  offset="0.15" style="stop-color:#004BFF"/>
				<stop  offset="1" style="stop-color:#004BFF;stop-opacity:0.1"/>
			</radialGradient>
			<path style="fill:url(#SVGID_00000133503961804205239010000004656339356278015934_);" d="M13.9,3.7c0.3,0.2,0.5,0.6,0.5,1.1
				c0,0.4-0.1,0.8-0.4,1.1c-0.2,0.3-0.6,0.5-1.1,0.5c-0.4,0-0.8-0.1-1.1-0.4C9.9,4.4,7.5,3.6,4.9,3.6c-0.2,0-0.4,0-0.6-0.1
				C4.1,3.4,3.9,3.3,3.8,3.2C3.7,3.1,3.6,2.9,3.4,2.7C3.4,2.5,3.3,2.3,3.3,2.1s0-0.4,0.1-0.6C3.5,1.3,3.6,1.1,3.8,1s0.3-0.2,0.5-0.4
				c0.2-0.1,0.4-0.1,0.6-0.1c3.3-0.1,6.5,1,9,3.1C13.9,3.6,13.9,3.6,13.9,3.7L13.9,3.7z"/>
			
				<radialGradient id="SVGID_00000009573433463999367810000001243029884781158052_" cx="-368.8751" cy="6.583" r="0.6232" gradientTransform="matrix(11.967 -9.9241 -9.9241 -11.967 4496.1797 -3569.6628)" gradientUnits="userSpaceOnUse">
				<stop  offset="0.15" style="stop-color:#004BFF"/>
				<stop  offset="1" style="stop-color:#004BFF;stop-opacity:0.1"/>
			</radialGradient>
			<path style="fill:url(#SVGID_00000009573433463999367810000001243029884781158052_);" d="M14,21.3c-0.3,0.2-0.7,0.4-1.1,0.4
				c-0.4,0-0.7-0.2-1.1-0.5c-0.2-0.3-0.4-0.7-0.4-1.1s0.2-0.7,0.4-1.1c1.7-1.8,2.8-4.2,3-6.7c0-0.2,0.1-0.4,0.1-0.6
				c0.1-0.2,0.2-0.4,0.4-0.5c0.1-0.1,0.3-0.2,0.5-0.3c0.2-0.1,0.4-0.1,0.6-0.1c0.2,0,0.4,0.1,0.6,0.1c0.2,0.1,0.4,0.2,0.5,0.4
				c0.1,0.1,0.2,0.3,0.3,0.5c0.1,0.2,0.1,0.4,0.1,0.6c-0.2,3.2-1.6,6.3-3.9,8.6C14.2,21.2,14.1,21.2,14,21.3L14,21.3z"/>
			
				<radialGradient id="SVGID_00000156565102994162667200000018221193521601410458_" cx="-335.0942" cy="75.0415" r="0.7089" gradientTransform="matrix(-8.6379 12.9261 12.9261 8.6379 -3862.0134 3695.0962)" gradientUnits="userSpaceOnUse">
				<stop  offset="0.15" style="stop-color:#004BFF"/>
				<stop  offset="1" style="stop-color:#004BFF;stop-opacity:0.1"/>
			</radialGradient>
			<path style="fill:url(#SVGID_00000156565102994162667200000018221193521601410458_);" d="M2.3,1.3c0.2-0.4,0.6-0.6,1.1-0.7
				s0.9-0.1,1.3,0.2s0.7,0.6,0.8,1.1c0.1,0.4,0.1,0.9-0.2,1.3c-1.3,2.5-1.7,5.4-1.1,8.2c0.1,0.2,0.1,0.4,0,0.7
				c-0.1,0.2-0.1,0.4-0.2,0.6c-0.1,0.2-0.3,0.4-0.5,0.5c-0.2,0.1-0.4,0.2-0.6,0.2c-0.2,0.1-0.4,0.1-0.7,0c-0.2-0.1-0.4-0.1-0.6-0.2
				S1.1,12.8,1,12.7S0.8,12.3,0.8,12C0,8.4,0.5,4.7,2.1,1.4C2.2,1.4,2.3,1.4,2.3,1.3L2.3,1.3z"/>
			
				<radialGradient id="SVGID_00000131366489246479952430000016325009427768489371_" cx="-329.8306" cy="71.9735" r="0.7089" gradientTransform="matrix(-6.9946 13.8843 13.8843 6.9946 -3303.5547 4098.9355)" gradientUnits="userSpaceOnUse">
				<stop  offset="0.15" style="stop-color:#004BFF"/>
				<stop  offset="1" style="stop-color:#004BFF;stop-opacity:0.1"/>
			</radialGradient>
			<path style="fill:url(#SVGID_00000131366489246479952430000016325009427768489371_);" d="M1.3,12.5c0.2-0.4,0.6-0.7,1-0.9
				c0.4-0.2,0.9-0.1,1.3,0.1c0.4,0.2,0.7,0.5,0.9,0.9c0.2,0.4,0.2,0.9,0,1.3c-1,2.7-1.1,5.6-0.1,8.3c0.1,0.2,0.1,0.4,0.1,0.7
				c0,0.2-0.1,0.4-0.2,0.7c-0.1,0.2-0.2,0.4-0.4,0.6c-0.2,0.1-0.4,0.2-0.6,0.4c-0.2,0.1-0.4,0.1-0.7,0.1c-0.2,0-0.4-0.1-0.7-0.2
				c-0.2-0.1-0.4-0.2-0.6-0.4c-0.1-0.2-0.2-0.4-0.4-0.6c-1.2-3.5-1.2-7.3,0.1-10.7C1.2,12.6,1.3,12.5,1.3,12.5L1.3,12.5z"/>
		</g>
	</g>
</g>
<g class="st7">
	<path d="M24.3,13c0-2.7,1.7-4.8,4.3-4.8c1.7,0,2.6,1.1,2.9,1.6h0.1V4.5h1.7v13.1h-1.7v-1.2h-0.1c-0.3,0.4-1.1,1.5-2.9,1.5
		C26.2,17.8,24.3,15.8,24.3,13z M31.7,13c0-2-1.3-3.2-2.9-3.2c-1.6,0-2.8,1.3-2.8,3.2c0,1.9,1.2,3.2,2.9,3.2
		C30.6,16.2,31.7,14.8,31.7,13z"/>
	<path d="M35.5,20h1.2c0.7,0,1.1-0.3,1.4-0.9l0.6-1.5h-0.4L35,8.5h1.9l2.4,7.5h0.1l2.6-7.5h1.9l-4.4,11.3c-0.5,1.2-1.4,1.7-2.8,1.7
		h-1.1V20z"/>
	<path d="M45.1,16.1h1.8V6h-1.8V4.5h3.5v11.6h1.7v1.5H45L45.1,16.1L45.1,16.1z"/>
	<path d="M51.4,13c0-2.7,1.7-4.8,4.3-4.8c1.7,0,2.6,1.1,2.9,1.6h0.1V8.5h1.7v7.1c0,0.2,0.2,0.4,0.4,0.4h0.4v1.6h-1.2
		c-0.7,0-1.3-0.5-1.3-1.2h-0.1c-0.3,0.4-1.1,1.5-2.9,1.5C53.3,17.8,51.4,15.8,51.4,13z M58.9,13c0-2-1.3-3.2-2.9-3.2
		c-1.6,0-2.8,1.3-2.8,3.2c0,1.9,1.2,3.2,2.9,3.2C57.7,16.2,58.9,14.8,58.9,13z"/>
	<path d="M63.7,8.5h1.7v1.2h0.1c0.4-0.7,1.3-1.4,2.6-1.4c2.1,0,3.3,1.6,3.3,3.5v5.9h-1.7V12c0-1.3-0.9-2.2-2.1-2.2
		c-1.2,0-2.2,1-2.2,2.3v5.4h-1.7L63.7,8.5L63.7,8.5z"/>
	<path d="M72.9,20h1.5c0.8,0,1.1-0.3,1.1-1.1V10h-1.9V8.5h3.6v10.5c0,1.9-1.1,2.7-2.9,2.7h-1.5L72.9,20L72.9,20z M75.2,5.7
		c0-0.6,0.5-1.1,1.1-1.1c0.7,0,1.2,0.5,1.2,1.1c0,0.7-0.5,1.2-1.2,1.2C75.7,6.9,75.2,6.4,75.2,5.7z"/>
	<path d="M79.7,13c0-2.7,1.7-4.8,4.3-4.8c1.7,0,2.6,1.1,2.9,1.6H87V8.5h1.7v7.1c0,0.2,0.2,0.4,0.4,0.4h0.4v1.6h-1.2
		c-0.7,0-1.3-0.5-1.3-1.2H87c-0.3,0.4-1.1,1.5-2.9,1.5C81.5,17.8,79.7,15.8,79.7,13z M87.1,13c0-2-1.3-3.2-2.9-3.2
		c-1.6,0-2.8,1.3-2.8,3.2c0,1.9,1.2,3.2,2.9,3.2C86,16.2,87.1,14.8,87.1,13z"/>
	<path d="M91.3,13c0-2.7,1.9-4.8,4.7-4.8c2.1,0,3.9,1.2,4.4,3.3l-1.7,0.4c-0.2-1.2-1.3-2.1-2.6-2.1c-1.7,0-2.9,1.4-2.9,3.2
		s1.2,3.2,3,3.2c1.3,0,2.4-0.8,2.6-2.1l1.7,0.4c-0.5,2.1-2.3,3.3-4.4,3.3C93.2,17.8,91.3,15.6,91.3,13z"/>
	<path d="M109.3,16.3h-0.1c-0.3,0.6-1.2,1.6-2.9,1.6c-2.5,0-4.3-2-4.3-4.8c0-2.7,1.9-4.7,4.4-4.7c1.8,0,2.6,1.1,2.9,1.5h0.1V8.5h1.7
		v13.2h-1.7L109.3,16.3L109.3,16.3z M109.3,13c0-1.7-1.1-3.2-2.8-3.2c-1.6,0-2.8,1.2-2.8,3.2c0,1.9,1.2,3.2,2.8,3.2
		C108,16.2,109.3,15,109.3,13z"/>
	<path d="M113.7,14.3V8.4h1.7V14c0,1.3,0.9,2.1,2.1,2.1c1.2,0,2.2-1,2.2-2.3V8.4h1.7v9.1h-1.7v-1.2h-0.1c-0.4,0.7-1.3,1.4-2.6,1.4
		C114.9,17.8,113.7,16.3,113.7,14.3z"/>
	<path d="M123.7,13c0-2.9,2.1-4.8,4.5-4.8c2.8,0,4.4,2,4.4,4.7v0.6h-7.1c0,1.8,1.1,2.8,2.8,2.8c1.1,0,2.2-0.6,2.5-1.7l1.6,0.4
		c-0.6,1.8-2.1,2.9-4.1,2.9C125.4,17.8,123.7,15.8,123.7,13z M130.8,12.2c-0.1-1.6-1.2-2.4-2.6-2.4c-1.4,0-2.6,1-2.7,2.4H130.8z"/>
	<path d="M135.6,14.9V10H134V8.5h1.7V5.9h1.6v2.6h2.7V10h-2.7v4.9c0,0.8,0.3,1.2,1.1,1.2h1.4v1.5h-1.5
		C136.8,17.6,135.6,16.8,135.6,14.9z"/>
</g>
</svg>
