<?xml version="1.0" encoding="utf-8"?>
<!-- Generator: Adobe Illustrator 26.5.0, SVG Export Plug-In . SVG Version: 6.00 Build 0)  -->
<svg version="1.1" id="Calque_1" xmlns="http://www.w3.org/2000/svg" xmlns:xlink="http://www.w3.org/1999/xlink" x="0px" y="0px"
	 viewBox="0 0 244.8 40" style="enable-background:new 0 0 244.8 40;" xml:space="preserve">
<style type="text/css">
	.st0{clip-path:url(#SVGID_00000078030992482932204720000011873754026680639119_);}
	.st1{fill:url(#SVGID_00000158734121162870000480000004612563403696365225_);}
	.st2{fill:url(#SVGID_00000016780318356282360020000004838096706515879097_);}
	.st3{fill:url(#SVGID_00000044151863587542265650000011648495556900611456_);}
	.st4{fill:url(#SVGID_00000034057126804107840480000014348541004134504862_);}
	.st5{fill:url(#SVGID_00000015323429342958096240000007423015770987410307_);}
	.st6{fill:url(#SVGID_00000000923545882607020830000017072717836937489589_);}
	.st7{enable-background:new    ;}
</style>
<g>
	<defs>
		<rect id="SVGID_1_" y="0" width="40" height="40"/>
	</defs>
	<clipPath id="SVGID_00000010997076593681956530000014201706913448139180_">
		<use xlink:href="#SVGID_1_"  style="overflow:visible;"/>
	</clipPath>
	<g style="clip-path:url(#SVGID_00000010997076593681956530000014201706913448139180_);">
		
			<radialGradient id="SVGID_00000068639393073887209890000010451515073386388122_" cx="-218.2705" cy="286.0905" r="1" gradientTransform="matrix(15.4521 1.722 -1.7217 15.4497 3896.9006 -4011.9055)" gradientUnits="userSpaceOnUse">
			<stop  offset="0.15" style="stop-color:#004BFF"/>
			<stop  offset="1" style="stop-color:#004BFF;stop-opacity:0.1"/>
		</radialGradient>
		<path style="fill:url(#SVGID_00000068639393073887209890000010451515073386388122_);" d="M18.6,39.3c-0.6-0.1-1.2-0.4-1.6-0.9
			s-0.6-1.1-0.6-1.8c0-0.6,0.3-1.2,0.8-1.7c0.5-0.4,1.1-0.7,1.7-0.6c4,0,7.9-1.4,11-4c0.2-0.2,0.5-0.4,0.8-0.5s0.6-0.1,1-0.1
			c0.3,0,0.6,0.1,0.9,0.3c0.3,0.1,0.5,0.4,0.8,0.6c0.2,0.2,0.4,0.5,0.5,0.8s0.1,0.6,0.1,1c0,0.3-0.1,0.6-0.3,0.9
			c-0.1,0.3-0.4,0.5-0.6,0.8c-4,3.4-9,5.2-14.2,5.2C18.7,39.4,18.7,39.4,18.6,39.3L18.6,39.3z"/>
		
			<radialGradient id="SVGID_00000085213372426027438790000014753892025749237938_" cx="-246.4973" cy="277.6722" r="1" gradientTransform="matrix(-9.518751e-16 -15.5453 15.5478 -9.520282e-16 -4285.6636 -3824.0464)" gradientUnits="userSpaceOnUse">
			<stop  offset="0.15" style="stop-color:#004BFF"/>
			<stop  offset="1" style="stop-color:#004BFF;stop-opacity:0.1"/>
		</radialGradient>
		<path style="fill:url(#SVGID_00000085213372426027438790000014753892025749237938_);" d="M40,20c0,0.6-0.2,1.3-0.7,1.7
			c-0.4,0.5-1,0.7-1.7,0.8c-0.6,0-1.3-0.2-1.8-0.6s-0.8-1-0.8-1.7c-0.4-4-2.3-7.7-5.2-10.5c-0.2-0.2-0.4-0.5-0.6-0.8
			C29.1,8.6,29,8.3,29,8c0-0.3,0-0.6,0.2-1c0.1-0.3,0.3-0.6,0.5-0.8C30,6,30.3,5.8,30.6,5.7c0.3-0.1,0.6-0.2,0.9-0.2s0.6,0,1,0.2
			c0.3,0.1,0.6,0.3,0.8,0.5c3.8,3.6,6.2,8.4,6.7,13.6C40,19.8,40,19.9,40,20L40,20z"/>
		
			<radialGradient id="SVGID_00000150094593651649472600000015669555287079424190_" cx="-246.9163" cy="263.0624" r="1" gradientTransform="matrix(-10.994 -10.9922 10.9922 -10.994 -5587.6138 181.2265)" gradientUnits="userSpaceOnUse">
			<stop  offset="0.15" style="stop-color:#004BFF"/>
			<stop  offset="1" style="stop-color:#004BFF;stop-opacity:0.1"/>
		</radialGradient>
		<path style="fill:url(#SVGID_00000150094593651649472600000015669555287079424190_);" d="M33.2,5.9c0.5,0.4,0.8,1,0.8,1.7
			c0,0.6-0.2,1.3-0.6,1.7c-0.4,0.5-1,0.8-1.7,0.8c-0.6,0-1.3-0.2-1.8-0.6c-3.1-2.5-7-3.8-11.1-3.7c-0.3,0-0.6,0-1-0.2
			c-0.3-0.1-0.6-0.3-0.8-0.5c-0.2-0.2-0.4-0.5-0.6-0.8c-0.1-0.3-0.2-0.6-0.2-0.9s0-0.6,0.2-1c0.1-0.3,0.3-0.6,0.5-0.8
			s0.5-0.4,0.8-0.6c0.3-0.1,0.6-0.2,0.9-0.2C23.9,0.7,29,2.4,33,5.7C33.1,5.7,33.2,5.8,33.2,5.9L33.2,5.9z"/>
		
			<radialGradient id="SVGID_00000041993858493935677850000017005399069507100076_" cx="-233.3899" cy="288.6061" r="1" gradientTransform="matrix(11.967 -9.9241 9.9241 11.967 -33.8037 -5750.1792)" gradientUnits="userSpaceOnUse">
			<stop  offset="0.15" style="stop-color:#004BFF"/>
			<stop  offset="1" style="stop-color:#004BFF;stop-opacity:0.1"/>
		</radialGradient>
		<path style="fill:url(#SVGID_00000041993858493935677850000017005399069507100076_);" d="M33.4,34.1c-0.5,0.4-1.1,0.6-1.8,0.6
			c-0.6,0-1.2-0.3-1.7-0.8c-0.4-0.5-0.7-1.1-0.7-1.7c0-0.6,0.3-1.2,0.7-1.7c2.8-2.9,4.5-6.7,4.8-10.7c0-0.3,0.1-0.6,0.2-0.9
			c0.1-0.3,0.3-0.6,0.6-0.8c0.2-0.2,0.5-0.4,0.8-0.5s0.6-0.1,1-0.1c0.3,0,0.6,0.1,0.9,0.2c0.3,0.1,0.6,0.3,0.8,0.6
			c0.2,0.2,0.4,0.5,0.5,0.8s0.1,0.6,0.1,1c-0.3,5.2-2.5,10.1-6.2,13.8C33.6,34,33.5,34,33.4,34.1L33.4,34.1z"/>
		
			<radialGradient id="SVGID_00000040570325380909499330000018295730807995928743_" cx="-216.4532" cy="254.6665" r="1.1374" gradientTransform="matrix(-8.6379 12.9261 -12.9261 -8.6379 1437.005 5016.6699)" gradientUnits="userSpaceOnUse">
			<stop  offset="0.15" style="stop-color:#004BFF"/>
			<stop  offset="1" style="stop-color:#004BFF;stop-opacity:0.1"/>
		</radialGradient>
		<path style="fill:url(#SVGID_00000040570325380909499330000018295730807995928743_);" d="M14.5,2.1c0.4-0.6,1-1,1.7-1.2
			s1.5-0.1,2.1,0.3s1.1,1,1.3,1.7c0.2,0.7,0.1,1.5-0.3,2.1c-2.1,4-2.8,8.7-1.7,13.2c0.1,0.4,0.1,0.7,0,1.1s-0.2,0.7-0.4,1
			c-0.2,0.3-0.5,0.6-0.8,0.8s-0.6,0.4-1,0.4c-0.4,0.1-0.7,0.1-1.1,0c-0.4-0.1-0.7-0.2-1-0.4c-0.3-0.2-0.6-0.5-0.8-0.8
			s-0.4-0.6-0.4-1c-1.3-5.8-0.5-11.8,2.2-17.1C14.4,2.3,14.5,2.2,14.5,2.1L14.5,2.1z"/>
		
			<radialGradient id="SVGID_00000093857589145225093790000003653343312077130170_" cx="-212.7138" cy="256.0954" r="1.1374" gradientTransform="matrix(-6.9946 13.8843 -13.8843 -6.9946 2083.1824 4781.4019)" gradientUnits="userSpaceOnUse">
			<stop  offset="0.15" style="stop-color:#004BFF"/>
			<stop  offset="1" style="stop-color:#004BFF;stop-opacity:0.1"/>
		</radialGradient>
		<path style="fill:url(#SVGID_00000093857589145225093790000003653343312077130170_);" d="M12.9,20c0.3-0.7,0.9-1.2,1.6-1.4
			c0.7-0.3,1.4-0.2,2.1,0.1c0.7,0.3,1.2,0.8,1.5,1.5s0.3,1.4,0,2.1c-1.6,4.3-1.7,9-0.1,13.3c0.1,0.3,0.2,0.7,0.2,1.1
			c0,0.4-0.1,0.7-0.3,1.1c-0.2,0.3-0.4,0.6-0.7,0.9c-0.3,0.2-0.6,0.4-0.9,0.6c-0.3,0.1-0.7,0.2-1.1,0.2c-0.4,0-0.7-0.1-1.1-0.3
			c-0.3-0.2-0.6-0.4-0.9-0.7c-0.2-0.3-0.4-0.6-0.6-0.9c-2-5.6-2-11.7,0.1-17.2C12.8,20.2,12.9,20.1,12.9,20L12.9,20z"/>
	</g>
</g>
<g class="st7">
	<path d="M46.3,20.9c0-4.4,2.8-7.7,6.9-7.7c2.8,0,4.2,1.7,4.7,2.5h0.2V7.2h2.8v21h-2.7v-2H58c-0.5,0.6-1.8,2.4-4.6,2.4
		C49.3,28.5,46.3,25.3,46.3,20.9z M58.2,20.9c0-3.2-2.1-5.1-4.6-5.1c-2.6,0-4.5,2.1-4.5,5.1c0,3.1,2,5.1,4.6,5.1
		C56.4,26,58.2,23.7,58.2,20.9z"/>
	<path d="M64.3,32.1h1.9c1.2,0,1.8-0.5,2.2-1.5l0.9-2.4h-0.7l-5.2-14.6h3l3.8,12h0.2l4.1-12h3.1l-7,18.2c-0.8,2-2.3,2.8-4.5,2.8
		h-1.8V32.1z"/>
	<path d="M79.6,25.8h2.9V9.6h-2.9V7.2h5.6v18.6H88v2.4h-8.5V25.8z"/>
	<path d="M89.8,20.9c0-4.4,2.8-7.7,6.9-7.7c2.8,0,4.2,1.7,4.7,2.5h0.2v-2.1h2.8V25c0,0.4,0.3,0.7,0.7,0.7h0.7v2.5h-2
		c-1.2,0-2.1-0.8-2.1-2h-0.2c-0.5,0.7-1.7,2.4-4.6,2.4C92.8,28.5,89.8,25.3,89.8,20.9z M101.7,20.9c0-3.2-2.1-5.1-4.6-5.1
		c-2.6,0-4.5,2.1-4.5,5.1c0,3.1,2,5.1,4.6,5.1C99.9,26,101.7,23.7,101.7,20.9z"/>
	<path d="M109.5,13.6h2.8v1.9h0.2c0.6-1.2,2.1-2.3,4.2-2.3c3.3,0,5.3,2.5,5.3,5.6v9.4h-2.8v-8.9c0-2.1-1.5-3.5-3.4-3.5
		c-2,0-3.6,1.6-3.6,3.7v8.7h-2.8V13.6z"/>
	<path d="M124.2,32.1h2.4c1.3,0,1.8-0.5,1.8-1.8V16h-3.1v-2.4h5.8v16.8c0,3-1.8,4.3-4.6,4.3h-2.4V32.1z M128,9.2
		c0-1,0.8-1.8,1.8-1.8c1.1,0,1.9,0.8,1.9,1.8c0,1.1-0.8,1.9-1.9,1.9C128.8,11.1,128,10.3,128,9.2z"/>
	<path d="M135.1,20.9c0-4.4,2.8-7.7,6.9-7.7c2.8,0,4.2,1.7,4.7,2.5h0.2v-2.1h2.8V25c0,0.4,0.3,0.7,0.7,0.7h0.7v2.5h-2
		c-1.2,0-2.1-0.8-2.1-2h-0.2c-0.5,0.7-1.7,2.4-4.6,2.4C138.1,28.5,135.1,25.3,135.1,20.9z M147,20.9c0-3.2-2.1-5.1-4.6-5.1
		c-2.6,0-4.5,2.1-4.5,5.1c0,3.1,2,5.1,4.6,5.1C145.2,26,147,23.7,147,20.9z"/>
	<path d="M153.7,20.9c0-4.3,3.1-7.7,7.5-7.7c3.3,0,6.2,1.9,7,5.3l-2.7,0.6c-0.4-2-2.1-3.4-4.2-3.4c-2.8,0-4.7,2.2-4.7,5.1
		c0,2.9,2,5.1,4.8,5.1c2.1,0,3.8-1.3,4.2-3.3l2.7,0.6c-0.8,3.4-3.7,5.3-7,5.3C156.8,28.5,153.7,25.1,153.7,20.9z"/>
	<path d="M182.6,26.1h-0.2c-0.5,0.9-1.9,2.5-4.7,2.5c-4,0-6.9-3.2-6.9-7.7c0-4.4,3-7.6,7-7.6c2.9,0,4.1,1.7,4.6,2.4h0.2v-2h2.7v21.1
		h-2.8V26.1z M182.7,20.8c0-2.7-1.8-5.1-4.5-5.1c-2.5,0-4.5,2-4.5,5.1c0,3,1.9,5.1,4.5,5.1C180.6,26,182.7,24.1,182.7,20.8z"/>
	<path d="M189.7,22.9v-9.4h2.8v8.9c0,2.1,1.5,3.4,3.4,3.4c2,0,3.6-1.6,3.6-3.7v-8.7h2.8v14.6h-2.8v-1.9h-0.2
		c-0.6,1.2-2.1,2.3-4.2,2.3C191.7,28.5,189.7,26.1,189.7,22.9z"/>
	<path d="M205.7,20.9c0-4.6,3.3-7.7,7.2-7.7c4.5,0,7.1,3.2,7.1,7.5v0.9h-11.4c0,2.9,1.8,4.5,4.5,4.5c1.8,0,3.5-1,4-2.8l2.6,0.6
		c-0.9,2.9-3.4,4.6-6.6,4.6C208.5,28.5,205.7,25.4,205.7,20.9z M217.1,19.5c-0.1-2.5-2-3.9-4.2-3.9c-2.2,0-4.1,1.6-4.3,3.9H217.1z"
		/>
	<path d="M224.9,23.9V16h-2.7v-2.4h2.8V9.4h2.6v4.2h4.3V16h-4.3v7.9c0,1.3,0.5,1.9,1.8,1.9h2.3v2.4h-2.4
		C226.7,28.2,224.9,26.9,224.9,23.9z"/>
</g>
</svg>
