<?xml version="1.0" encoding="UTF-8"?><svg id="Calque_1" xmlns="http://www.w3.org/2000/svg" xmlns:xlink="http://www.w3.org/1999/xlink" viewBox="0 0 354.68 90.71"><defs><style>.cls-1{fill:#fff;}.cls-2{clip-path:url(#clippath);}.cls-3{fill:none;}.cls-4{fill:#ff492c;}.cls-5{fill:#004bff;}</style><clipPath id="clippath"><rect class="cls-3" width="90.71" height="90.71"/></clipPath></defs><g class="cls-2"><g><path class="cls-4" d="M45.35,90.71c25.05,0,45.35-20.31,45.35-45.35S70.4,0,45.35,0,0,20.31,0,45.35s20.31,45.35,45.35,45.35Z"/><path class="cls-1" d="M64.98,34.74h-7.75c.21-1.22,.96-1.9,2.49-2.67l1.42-.73c2.55-1.31,3.91-2.78,3.91-5.2,0-1.51-.59-2.71-1.76-3.57-1.17-.86-2.55-1.29-4.16-1.29-1.25-.01-2.48,.34-3.53,1.01-1.06,.65-1.85,1.5-2.34,2.55l2.24,2.25c.87-1.76,2.13-2.62,3.79-2.62,1.41,0,2.27,.73,2.27,1.73,0,.84-.42,1.54-2.03,2.36l-.92,.44c-1.99,1.01-3.37,2.16-4.16,3.47-.8,1.31-1.19,2.95-1.19,4.93v.54h11.72v-3.21Z"/><path class="cls-1" d="M63.95,41.65h-12.83l-6.41,11.1h12.83l6.41,11.11,6.41-11.11-6.41-11.1Z"/><path class="cls-1" d="M45.82,60.17c-8.16,0-14.81-6.65-14.81-14.81s6.65-14.81,14.81-14.81l5.07-10.6c-1.67-.33-3.37-.5-5.07-.5-14.31,0-25.92,11.6-25.92,25.92s11.6,25.92,25.92,25.92c5.49,.01,10.83-1.73,15.26-4.97l-5.61-9.72c-2.68,2.32-6.11,3.59-9.65,3.59Z"/></g></g><path class="cls-5" d="M134.94,27.27c.42-1.31,2.27-1.31,2.7,0l3.74,11.52c.19,.58,.73,.98,1.35,.98h12.11c1.37,0,1.94,1.76,.83,2.56l-9.8,7.12c-.5,.36-.7,1-.51,1.58l3.74,11.52c.42,1.31-1.07,2.39-2.18,1.58l-9.8-7.12c-.5-.36-1.17-.36-1.67,0l-9.8,7.12c-1.11,.81-2.61-.28-2.18-1.58l3.74-11.52c.19-.58-.02-1.22-.51-1.58l-9.8-7.12c-1.11-.81-.54-2.56,.83-2.56h12.11c.61,0,1.16-.4,1.35-.98l3.74-11.52Z"/><path class="cls-5" d="M184.55,27.07c.44-1.27,2.24-1.27,2.68,0l4.06,11.8c.2,.57,.74,.96,1.34,.96h12.95c1.39,0,1.95,1.8,.8,2.59l-10.34,7.09c-.53,.36-.75,1.03-.54,1.63l3.98,11.57c.44,1.29-1.02,2.4-2.14,1.63l-10.66-7.31c-.48-.33-1.12-.33-1.6,0l-10.66,7.31c-1.13,.77-2.59-.34-2.14-1.63l3.98-11.57c.21-.6-.01-1.27-.54-1.63l-10.34-7.09c-1.15-.79-.59-2.59,.8-2.59h12.95c.61,0,1.14-.38,1.34-.96l4.06-11.8Z"/><path class="cls-5" d="M234.15,27.27c.42-1.31,2.27-1.31,2.7,0l3.74,11.52c.19,.58,.73,.98,1.35,.98h12.11c1.37,0,1.94,1.76,.83,2.56l-9.8,7.12c-.5,.36-.7,1-.51,1.58l3.74,11.52c.42,1.31-1.07,2.39-2.18,1.58l-9.8-7.12c-.5-.36-1.17-.36-1.67,0l-9.8,7.12c-1.11,.81-2.61-.28-2.18-1.58l3.74-11.52c.19-.58-.02-1.22-.51-1.58l-9.8-7.12c-1.11-.81-.54-2.56,.83-2.56h12.11c.61,0,1.16-.4,1.35-.98l3.74-11.52Z"/><path class="cls-5" d="M283.76,27.07c.44-1.27,2.24-1.27,2.68,0l4.06,11.8c.2,.57,.74,.96,1.34,.96h12.95c1.39,0,1.95,1.8,.8,2.59l-10.34,7.09c-.53,.36-.75,1.03-.54,1.63l3.98,11.57c.44,1.29-1.02,2.4-2.14,1.63l-10.66-7.31c-.48-.33-1.12-.33-1.6,0l-10.66,7.31c-1.13,.77-2.59-.34-2.14-1.63l3.98-11.57c.21-.6-.01-1.27-.54-1.63l-10.34-7.09c-1.15-.79-.59-2.59,.8-2.59h12.95c.61,0,1.14-.38,1.34-.96l4.06-11.8Z"/><path class="cls-5" d="M333.36,27.27c.42-1.31,2.27-1.31,2.7,0l3.74,11.52c.19,.58,.73,.98,1.35,.98h12.11c1.37,0,1.94,1.76,.83,2.56l-9.8,7.12c-.5,.36-.7,1-.51,1.58l3.74,11.52c.42,1.31-1.07,2.39-2.18,1.58l-9.8-7.12c-.5-.36-1.17-.36-1.67,0l-9.8,7.12c-1.11,.81-2.61-.28-2.18-1.58l3.74-11.52c.19-.58-.02-1.22-.51-1.58l-9.8-7.12c-1.11-.81-.54-2.56,.83-2.56h12.11c.61,0,1.16-.4,1.35-.98l3.74-11.52Z"/></svg>