<?xml version="1.0" encoding="UTF-8"?><svg id="Calque_1" xmlns="http://www.w3.org/2000/svg" xmlns:xlink="http://www.w3.org/1999/xlink" viewBox="0 0 125.13 32"><defs><style>.cls-1{fill:#fff;}.cls-2{clip-path:url(#clippath);}.cls-3{fill:none;}.cls-4{fill:#ff492c;}.cls-5{fill:#004bff;}</style><clipPath id="clippath"><rect class="cls-3" width="32" height="32"/></clipPath></defs><g class="cls-2"><g><path class="cls-4" d="M16,32c8.84,0,16-7.16,16-16S24.84,0,16,0,0,7.16,0,16s7.16,16,16,16Z"/><path class="cls-1" d="M22.92,12.26h-2.73c.07-.43,.34-.67,.88-.94l.5-.26c.9-.46,1.38-.98,1.38-1.83,0-.53-.21-.96-.62-1.26-.41-.3-.9-.45-1.47-.45-.44,0-.87,.12-1.24,.36-.37,.23-.65,.53-.83,.9l.79,.79c.31-.62,.75-.92,1.34-.92,.5,0,.8,.26,.8,.61,0,.3-.15,.54-.72,.83l-.32,.16c-.7,.36-1.19,.76-1.47,1.22-.28,.46-.42,1.04-.42,1.74v.19h4.13v-1.13Z"/><path class="cls-1" d="M22.56,14.69h-4.52l-2.26,3.92h4.52l2.26,3.92,2.26-3.92-2.26-3.92Z"/><path class="cls-1" d="M16.16,21.23c-2.88,0-5.23-2.35-5.23-5.23s2.35-5.23,5.23-5.23l1.79-3.74c-.59-.12-1.19-.18-1.79-.18-5.05,0-9.14,4.09-9.14,9.14s4.09,9.14,9.14,9.14c1.94,0,3.82-.61,5.38-1.75l-1.98-3.43c-.95,.82-2.15,1.27-3.4,1.27Z"/></g></g><path class="cls-5" d="M47.6,9.62c.15-.46,.8-.46,.95,0l1.32,4.06c.07,.21,.26,.35,.48,.35h4.27c.48,0,.69,.62,.29,.9l-3.46,2.51c-.18,.13-.25,.35-.18,.56l1.32,4.06c.15,.46-.38,.84-.77,.56l-3.46-2.51c-.18-.13-.41-.13-.59,0l-3.46,2.51c-.39,.28-.92-.1-.77-.56l1.32-4.06c.07-.21,0-.43-.18-.56l-3.46-2.51c-.39-.28-.19-.9,.29-.9h4.27c.22,0,.41-.14,.48-.35l1.32-4.06Z"/><path class="cls-5" d="M65.11,9.55c.15-.45,.79-.45,.95,0l1.43,4.16c.07,.2,.26,.34,.47,.34h4.57c.49,0,.69,.63,.28,.91l-3.65,2.5c-.19,.13-.26,.36-.19,.57l1.4,4.08c.16,.46-.36,.85-.76,.57l-3.76-2.58c-.17-.12-.4-.12-.57,0l-3.76,2.58c-.4,.27-.91-.12-.76-.57l1.4-4.08c.07-.21,0-.45-.19-.57l-3.65-2.5c-.41-.28-.21-.91,.28-.91h4.57c.21,0,.4-.14,.47-.34l1.43-4.16Z"/><path class="cls-5" d="M82.6,9.62c.15-.46,.8-.46,.95,0l1.32,4.06c.07,.21,.26,.35,.48,.35h4.27c.48,0,.69,.62,.29,.9l-3.46,2.51c-.18,.13-.25,.35-.18,.56l1.32,4.06c.15,.46-.38,.84-.77,.56l-3.46-2.51c-.18-.13-.41-.13-.59,0l-3.46,2.51c-.39,.28-.92-.1-.77-.56l1.32-4.06c.07-.21,0-.43-.18-.56l-3.46-2.51c-.39-.28-.19-.9,.29-.9h4.27c.22,0,.41-.14,.48-.35l1.32-4.06Z"/><path class="cls-5" d="M100.11,9.55c.15-.45,.79-.45,.95,0l1.43,4.16c.07,.2,.26,.34,.47,.34h4.57c.49,0,.69,.63,.28,.91l-3.65,2.5c-.19,.13-.26,.36-.19,.57l1.4,4.08c.16,.46-.36,.85-.76,.57l-3.76-2.58c-.17-.12-.4-.12-.57,0l-3.76,2.58c-.4,.27-.91-.12-.76-.57l1.4-4.08c.07-.21,0-.45-.19-.57l-3.65-2.5c-.41-.28-.21-.91,.28-.91h4.57c.21,0,.4-.14,.47-.34l1.43-4.16Z"/><path class="cls-5" d="M117.6,9.62c.15-.46,.8-.46,.95,0l1.32,4.06c.07,.21,.26,.35,.48,.35h4.27c.48,0,.69,.62,.29,.9l-3.46,2.51c-.18,.13-.25,.35-.18,.56l1.32,4.06c.15,.46-.38,.84-.77,.56l-3.46-2.51c-.18-.13-.41-.13-.59,0l-3.46,2.51c-.39,.28-.92-.1-.77-.56l1.32-4.06c.07-.21,0-.43-.18-.56l-3.46-2.51c-.39-.28-.19-.9,.29-.9h4.27c.22,0,.41-.14,.48-.35l1.32-4.06Z"/></svg>