<svg width="87" height="17" viewBox="0 0 87 17" fill="none" xmlns="http://www.w3.org/2000/svg">
<path d="M8.02447 1.46352C8.17415 1.00287 8.82585 1.00287 8.97553 1.46353L10.2961 5.52786C10.363 5.73388 10.555 5.87336 10.7716 5.87336L15.0451 5.87336C15.5295 5.87336 15.7309 6.49316 15.339 6.77786L11.8817 9.28976C11.7065 9.41709 11.6331 9.64277 11.7001 9.84878L13.0206 13.9131C13.1703 14.3738 12.6431 14.7568 12.2512 14.4721L8.79389 11.9602C8.61865 11.8329 8.38135 11.8329 8.20611 11.9602L4.74877 14.4721C4.35692 14.7568 3.82968 14.3738 3.97935 13.9131L5.29994 9.84878C5.36687 9.64277 5.29355 9.41709 5.1183 9.28976L1.66097 6.77786C1.26911 6.49316 1.4705 5.87336 1.95486 5.87336L6.22836 5.87336C6.44497 5.87336 6.63695 5.73388 6.70389 5.52786L8.02447 1.46352Z" fill="#004BFF"/>
<path d="M25.5272 1.3743C25.6819 0.924509 26.3181 0.924507 26.4728 1.37429L27.9046 5.53601C27.974 5.73785 28.1639 5.87336 28.3774 5.87336L32.9471 5.87336C33.4384 5.87336 33.6351 6.50769 33.23 6.78563L29.5831 9.28806C29.3978 9.41524 29.3201 9.65045 29.3932 9.863L30.7976 13.9453C30.9544 14.4009 30.4393 14.7928 30.0419 14.5202L26.2829 11.9408C26.1124 11.8239 25.8876 11.8239 25.7171 11.9408L21.9581 14.5202C21.5607 14.7928 21.0456 14.4009 21.2024 13.9453L22.6068 9.863C22.6799 9.65045 22.6022 9.41524 22.4169 9.28806L18.77 6.78563C18.3649 6.50769 18.5616 5.87336 19.0529 5.87336L23.6226 5.87336C23.8361 5.87336 24.026 5.73785 24.0954 5.53602L25.5272 1.3743Z" fill="#004BFF"/>
<path d="M43.0245 1.46352C43.1741 1.00287 43.8259 1.00287 43.9755 1.46353L45.2961 5.52786C45.363 5.73388 45.555 5.87336 45.7716 5.87336L50.0451 5.87336C50.5295 5.87336 50.7309 6.49316 50.339 6.77786L46.8817 9.28976C46.7065 9.41709 46.6331 9.64277 46.7001 9.84878L48.0206 13.9131C48.1703 14.3738 47.6431 14.7568 47.2512 14.4721L43.7939 11.9602C43.6186 11.8329 43.3814 11.8329 43.2061 11.9602L39.7488 14.4721C39.3569 14.7568 38.8297 14.3738 38.9794 13.9131L40.2999 9.84878C40.3669 9.64277 40.2935 9.41709 40.1183 9.28976L36.661 6.77786C36.2691 6.49316 36.4705 5.87336 36.9549 5.87336L41.2284 5.87336C41.445 5.87336 41.637 5.73388 41.7039 5.52786L43.0245 1.46352Z" fill="#004BFF"/>
<path d="M60.5272 1.3743C60.6819 0.924509 61.3181 0.924507 61.4728 1.37429L62.9046 5.53601C62.974 5.73785 63.1639 5.87336 63.3774 5.87336L67.9471 5.87336C68.4384 5.87336 68.6351 6.50769 68.23 6.78563L64.5831 9.28806C64.3978 9.41524 64.3201 9.65045 64.3932 9.863L65.7976 13.9453C65.9544 14.4009 65.4393 14.7928 65.0419 14.5202L61.2829 11.9408C61.1124 11.8239 60.8876 11.8239 60.7171 11.9408L56.9581 14.5202C56.5607 14.7928 56.0456 14.4009 56.2024 13.9453L57.6068 9.863C57.6799 9.65045 57.6022 9.41524 57.4169 9.28806L53.77 6.78563C53.3649 6.50769 53.5616 5.87336 54.0529 5.87336L58.6226 5.87336C58.8361 5.87336 59.026 5.73785 59.0954 5.53602L60.5272 1.3743Z" fill="#004BFF"/>
<path d="M78.0245 1.46352C78.1741 1.00287 78.8259 1.00287 78.9755 1.46353L80.2961 5.52786C80.363 5.73388 80.555 5.87336 80.7716 5.87336L85.0451 5.87336C85.5295 5.87336 85.7309 6.49316 85.339 6.77786L81.8817 9.28976C81.7065 9.41709 81.6331 9.64277 81.7001 9.84878L83.0206 13.9131C83.1703 14.3738 82.6431 14.7568 82.2512 14.4721L78.7939 11.9602C78.6186 11.8329 78.3814 11.8329 78.2061 11.9602L74.7488 14.4721C74.3569 14.7568 73.8297 14.3738 73.9794 13.9131L75.2999 9.84878C75.3669 9.64277 75.2935 9.41709 75.1183 9.28976L71.661 6.77786C71.2691 6.49316 71.4705 5.87336 71.9549 5.87336L76.2284 5.87336C76.445 5.87336 76.637 5.73388 76.7039 5.52786L78.0245 1.46352Z" fill="#004BFF"/>
</svg>
