<?xml version="1.0" encoding="utf-8"?>
<!-- Generator: Adobe Illustrator 26.5.0, SVG Export Plug-In . SVG Version: 6.00 Build 0)  -->
<svg version="1.1" id="Calque_1" xmlns="http://www.w3.org/2000/svg" xmlns:xlink="http://www.w3.org/1999/xlink" x="0px" y="0px"
	 viewBox="0 0 1024 600" style="enable-background:new 0 0 1024 600;" xml:space="preserve">
<style type="text/css">
	.st0{fill:#EBF2F9;}
	.st1{fill:#F8FBFF;}
	.st2{fill:#C9E0F2;}
	.st3{fill:#A8D29F;}
	.st4{fill:#FFB27D;}
	.st5{fill:#233862;}
	.st6{fill:#2B478B;}
	.st7{fill:#E8945B;}
	.st8{fill:#EE9849;}
	.st9{fill:#E58638;}
	.st10{fill:#C65447;}
	.st11{fill:#BA4C43;}
	.st12{fill:#F1A34F;}
	.st13{fill:#CE8032;}
	.st14{fill:#E89746;}
	.st15{fill:#82B378;}
	.st16{fill:#2E3552;}
	.st17{fill:#004BFF;}
</style>
<g>
	<path class="st0" d="M929,542.6l-207.7-0.1l-176.4-0.1l-24.3,0l-411.3-0.1c0,0-21.7-53.6-15.9-111.6c0.7-7.3,1.9-14.6,3.6-21.9
		c0,0,0,0,0-0.1c1-4.5,2.3-8.9,3.7-13.4c6.1-18.8,16.3-36.9,32-52.8c95.4-96.3,218.7-15.8,265-18.2c46.3-2.3,48.9-94.7,187.1-105.8
		c76.7-6.1,159,8.2,185.6,72.5c10.5,25.3,12.3,58.4,1.7,101.1c-6.2,24.8-0.9,40,10.9,49.8c24.4,20.4,76.7,17.8,112.4,30.5
		C922,482.1,939.3,500.1,929,542.6z"/>
	<path class="st1" d="M783,442.1L183.5,520c-5.4-19.7-8.2-41.1-6.8-63.9l593.7-164.9c10.5,25.3,12.3,58.4,1.7,101.1
		C766,417.1,771.3,432.3,783,442.1z"/>
	<path class="st1" d="M532.3,321.5L93.4,430.7c0.7-7.3,1.9-14.6,3.6-21.9c0,0,0,0,0-0.1c1-4.5,2.3-8.9,3.7-13.4L532.3,321.5z"/>
	<path class="st2" d="M520.6,542.4l-411.3-0.1c0,0-27.4-67.9-12.3-133.5c0,0,0,0,0-0.1c25.4-1.2,67.2,1.8,111.1,26.8
		c69.4,39.5,183.4,10.6,216.4,32.7c33,22.1,40.6,45.1,65.1,49C511,520.8,519,538.1,520.6,542.4C520.6,542.4,520.6,542.4,520.6,542.4
		z"/>
	<path class="st1" d="M686.6,276.4c0-6.3,5.1-11.5,11.5-11.5c6.3,0,11.5,5.1,11.5,11.5c0,6.3-5.1,11.5-11.5,11.5
		C691.7,287.9,686.6,282.7,686.6,276.4z"/>
	<path class="st3" d="M646.3,509.7c11.4-3.6,26-9.4,18.1-13.7c-8.5-4.7-19.4,5.2-25.3,11.8c-0.3-0.1-0.6-0.1-0.9-0.1
		c-1.5-0.2-3-0.3-4.6-0.3c11.2-18,23.8-42,13.1-45.1c-11.5-3.3-19.8,25.9-23.8,46.3c-11.2,2.4-23.4,7.9-36,11.5
		c-4.5-16.2-14.7-40.4-36.2-39.8c-22.6,0.6,5.6,26.8,24.6,42.5c-4.2,0.7-8.5,1-12.8,0.8c-27.6-1.3-44.9,17.4-44.9,17.4l148.2,0
		C671.3,532.2,662.9,515.9,646.3,509.7z"/>
	<g>
		<path class="st4" d="M395.1,145.9c0,0-10.3-11.3-13.5-11.6c-3.2-0.4-16.3,5.9-17.1,8.4c-0.8,2.5,14.5-2.5,15.3,0
			c0.8,2.5,1.8,4.2,6.1,4.4c4.3,0.2,8.1,2.6,8.1,2.6L395.1,145.9z"/>
		<path class="st5" d="M407.5,541c-3.3-2-1.4-17-1.4-17s15.3-12.2,17.4-2.9c2.1,9.4,14.5,13.6,21.6,14.7c4.9,0.8,6.4,3.5,6.9,5.1
			H407.5z"/>
		<path class="st6" d="M404.8,531.5c-3.9-1.5-25.7-53.9-24.8-70.9c0.1-2-0.3-18.6-0.9-22c-0.5-2.7-1.1-5.8-1.9-9.2
			c-1.2-5.3-2.7-11.3-4.3-17.8c-4.6-18.2-10.6-39.9-14.6-57.2c7.3-16.4,16.7-30.8,25.3-35.7c6.1,0.7,12.1,1.9,16.4,2.8
			c3.5,2.1,6.1,3.8,8,5.3c0.7,3.4,1.7,9.1,2.5,16.4c0.5,4.8,1,10.3,1.2,16.3c1.5,42.6-6,88.8,13,164.3
			C425.1,525.9,410.8,533.8,404.8,531.5z"/>
		<path class="st5" d="M410.4,343.2c-3.2,15.8-10.8,49.6-37.6,68.3c-4.6-18.2-10.6-39.9-14.6-57.2c7.3-16.4,16.7-30.8,25.3-35.7
			c6.1,0.7,12.1,1.9,16.4,2.8c3.5,2.1,6.1,3.8,8,5.3C408.6,330.2,409.6,335.9,410.4,343.2z"/>
		<path class="st4" d="M377.4,194.4l0,2.7c0,0,0.7,8.3-9.5,9.5c-10.2,1.2-18-3.2-17.7-9.6c0.9-5,1.9-8.4,2-12.5c0-1.5-0.1-3.1-0.4-5
			l19.8-0.4l5.8,1L377.4,194.4z"/>
		<path class="st7" d="M377.4,180l-0.1,14.4c-2.1,1-4.5,1.6-7.1,1.6c-9.1,0-15-6.7-18.1-11.5c0-1.5-0.1-3.1-0.4-5l19.8-0.4
			L377.4,180z"/>
		<path class="st4" d="M378.6,187c0,0-25.4,5.1-28.3-10.7c-2.9-15.8-8.2-25.9,7.9-29.8c16.1-3.9,20.4,1.5,22.6,6.6
			C383,158.1,385.1,185.2,378.6,187z"/>
		<path class="st5" d="M360.3,541c0,0-1.4-7.6-3.6-12c-2.2-4.4-16.2-1.6-16.2-1.6s-2.8,2.4-3.4,13.6H360.3z"/>
		<path class="st6" d="M387.7,327.1c0,0-13.9,62-18.4,89.9c-1.7,10.5-5.1,44-5.7,54.6c-0.7,14.5-5.5,59-5.5,59s-8.1-5.1-20.1-0.3
			c0,0-3-19.9-5-61.6c-0.6-12.2,1.8-30.6,1.5-36.6c-1.4-29.3-10.8-105.2-3.3-110.1C338.8,317,387.7,327.1,387.7,327.1z"/>
		<path class="st5" d="M385.7,141.3c0,0-7.1-0.5-15.4-4.2c-6.8-2.9-15.3,0.3-18.1,1.8c0.1-0.4,0.3-1.1,0.7-1.7c0,0-1.2,0.9-1.4,2.1
			c-0.1,0.1-0.2,0.2-0.2,0.2c0,0-1.4-0.3-2.3,0.1c0,0,0.6-0.1,0.9,0.3c0,0,0.1,0.1,0.1,0.1c-10.6,5.1-11.5,21.8-8.1,25.7
			c4.1,4.6,9,15.1,9,15.1s1.8-2.5,1-6.6c-0.7-4.1,2.8-4.1,7.3-5.9c4.5-1.9,0.7-7.1,4.6-10.2c3.9-3.2,18.2-1.3,18-3.7
			C387.1,152.4,385.7,141.8,385.7,141.3z"/>
		<path class="st8" d="M392.5,140.4c0,0-2.1,0.9-3.4,3.9c-1.6,3.9-0.3,6-0.3,6s26.8,24.3,25.1,28.8c-0.9,2.3-21.7,14.5-30.4,19.5
			c-3.6-0.3-6.3-0.3-6.4-0.3l0,0c0,0-5.9,17.9-26.9-1.4c-3.7,5.4-32.4,18.6-27.4,41.4c1.2,5.4,2.2,10.4,3.1,15.2
			c5.9,32.3,5.5,51.4,4.3,61.9c-0.9,8.2-4.3,9-1.3,11.2c0,0,5.9,2.7,17,4.9c8.2,1.7,19.3,3.2,32.9,3.3c21.7,0.1,29.9-7.3,29.9-7.3
			c5.7-5.6-5.6-27.7-4.7-43.6c0.5-8.2,0-36.1-0.1-49c0,0,0,0,0,0c0,0,0,0,0,0c1-1.1,32.7-36,39-55.8c0,0,0,0,0,0
			c0.3-1,0.6-2,0.7-2.9C445.5,166.4,392.5,140.4,392.5,140.4z"/>
		<path class="st9" d="M330.1,315.3c1.2-10.5,1.6-29.6-4.3-61.9c0.4-1.3,0.8-2.5,1.2-3.7c1.8-5.3,9.4-5.1,10.8,0.4
			C342.2,267,346.2,295.8,330.1,315.3z"/>
		<path class="st4" d="M323.7,297.7c0,0,13.2-8,17.2-7c4.1,1,12.9,4.9,12.4,7.2c-0.5,2.4-10.8,4-12.6,3.7c-1.8-0.3-4.7,0-5.9,1.1
			c-1.2,1-10.5,1.4-11.6-1.3C322,298.6,323.7,297.7,323.7,297.7z"/>
		<path class="st8" d="M350.2,196.9c0,0-16.1,1.2-24.9,6.3c-5.7,3.3-38.6,55.7-38.6,63.4c0,7.7,34.5,35.1,34.5,35.1s6.4,2.1,6.6-8.1
			c0,0-17.2-25.5-16.3-28.4c0.6-1.9,26-22.2,26-22.2L350.2,196.9z"/>
		<path class="st9" d="M442.8,179.1c-6.2,19.8-37.9,54.6-39,55.8c0,0,0,0,0,0c0,0,0,0,0,0s0,0,0,0c-0.1-0.3-2.7-10.3,3.5-17.5
			C413.7,210.2,435.6,192,442.8,179.1z"/>
		<g>
			<path class="st9" d="M344.1,199.9c-0.1-1.4,6.6-3.3,6.6-3.3s7.6,10.5,20.1,10.7c0,0-3.6,6.9-7.8,8.7
				C363,216,344.5,208.2,344.1,199.9z"/>
			<path class="st9" d="M370.7,207c0,0,6.6-3.9,6.6-8.2c0,0,4.3-0.5,6.1,1.5c0,0,1.6,7.3-0.5,11.5C383,211.9,373.5,210.4,370.7,207z
				"/>
			<path class="st10" d="M393.7,305.8c-0.1,3.4-1.5,6.7-3.9,9.2l-3.8,3.9c-0.9,1-2.5,0.9-3.4-0.1l-5.2-6c-1.4-1.6-2.1-3.7-2-5.8
				c0.2-4.7,0.6-13.9,0.8-22.7c0.2-7.1,0.3-14.1,0.1-18.3c-0.6-13.4-5.5-56.1-5.5-56.1h3.2c0,0,8.9,16.2,14.2,38.6
				c1.3,5.5,2.4,11.4,3.1,17.5C391.3,265.8,394.3,290.2,393.7,305.8z"/>
			<path class="st11" d="M366.2,206.4l9-2.2c0,0,1.2,0.1,1.1,1.6c0,1.5-2.5,5.7-3.6,6.1C371.6,212.2,364.1,209.3,366.2,206.4z"/>
			<path class="st8" d="M344.1,197.8c-0.1-1.4,6.6-3.3,6.6-3.3s7.6,10.5,20.1,10.7c0,0-3.6,6.9-7.8,8.7
				C363,213.9,344.5,206.1,344.1,197.8z"/>
			<path class="st8" d="M370.7,205.2c0,0,6.6-3.9,6.6-8.2c0,0,4.3-0.5,6.1,1.5c0,0,1.6,7.3-0.5,11.5
				C383,210.1,373.5,208.6,370.7,205.2z"/>
			<path class="st11" d="M393.7,305.8c-0.1,3.4-1.5,6.7-3.9,9.2l-3.8,3.9c-0.9,1-2.5,0.9-3.4-0.1l-5.2-6c-1.4-1.6-2.1-3.7-2-5.8
				c0.2-4.7,0.6-13.9,0.8-22.7c8.4-10.5,11.3-24.5,12.1-35.8c1.3,5.5,2.4,11.4,3.1,17.5C391.3,265.8,394.3,290.2,393.7,305.8z"/>
		</g>
	</g>
	<g>
		<path class="st5" d="M302.1,541H269c-9,0-16.3-7.3-16.3-16.3v-15.1c0-9,7.3-16.3,16.3-16.3h33.1c9,0,16.3,7.3,16.3,16.3v15.1
			C318.4,533.6,311.1,541,302.1,541z"/>
		<path class="st6" d="M313.4,498.7v36.9c0,3-2.4,5.4-5.4,5.4h-54.9c-3,0-5.4-2.4-5.4-5.4v-36.9c0-3,2.4-5.4,5.4-5.4H308
			C311,493.2,313.4,495.7,313.4,498.7z"/>
		<g>
			<path class="st5" d="M268.6,493.2c3.5-4.1,8.1-5.8,11-5.8c7.2,0,11.2,5.6,11.3,5.8l-1.7,0.1c-0.1-0.2-3-3.7-9.1-3.7
				c-2.5,0-6.3,0-9.3,3.6C270.5,493.5,268.5,493.3,268.6,493.2z"/>
		</g>
		<path class="st5" d="M313.4,500.2v10.7c0,3-2.4,5.4-5.4,5.4h-54.9c-3,0-5.4-2.4-5.4-5.4v-10.7c0-3,2.4-5.4,5.4-5.4H308
			C311,494.7,313.4,497.2,313.4,500.2z"/>
		<path class="st6" d="M313.4,498.7v10.7c0,3-2.4,5.4-5.4,5.4h-54.9c-3,0-5.4-2.4-5.4-5.4v-10.7c0-3,2.4-5.4,5.4-5.4H308
			C311,493.2,313.4,495.7,313.4,498.7z"/>
		<path class="st5" d="M277.9,510.6c0-0.9,0.7-1.7,1.7-1.7c0.9,0,1.7,0.7,1.7,1.7c0,0.9-0.7,1.7-1.7,1.7
			C278.7,512.3,277.9,511.5,277.9,510.6z"/>
	</g>
	<path class="st3" d="M929,542.6l-207.7-0.1l-0.3-0.1c0,0,18.3-25.2,53.9-25.1c35.6,0.1,35.2-18.4,81.8-29.9
		c13.8-3.4,27-8.8,38.6-14.8C922,482.1,939.3,500.1,929,542.6z"/>
	<g>
		<path class="st12" d="M617.3,242.6v293.6c0,2.6-2,4.8-4.5,4.8h-4.5c-1.2,0-2.3-0.5-3.2-1.4c-0.8-0.9-1.3-2.1-1.3-3.4V242.6
			c0-1.7,0.9-3.2,2.1-4.1c0.7-0.5,1.5-0.7,2.3-0.7h4.5C615.3,237.8,617.3,240,617.3,242.6z"/>
		<path class="st9" d="M607.3,241.9v293.6c0,1.7-0.9,3.2-2.1,4.1c-0.8-0.9-1.3-2.1-1.3-3.4V242.6c0-1.7,0.9-3.2,2.1-4.1
			C606.8,239.4,607.3,240.6,607.3,241.9z"/>
		<polygon class="st12" points="556,357.2 531.2,373.9 553.7,393.6 609.3,390.1 609.3,367.6 		"/>
		<path class="st13" d="M605.6,370.7c-0.3,0.7-0.2,1.6,0.2,2.1c0.4,0.5,0.8,0.3,1.1-0.3c0.3-0.7,0.2-1.6-0.2-2.1
			C606.4,369.8,605.9,370,605.6,370.7z"/>
		<path class="st13" d="M605.6,384c-0.3,0.7-0.2,1.6,0.2,2.1c0.4,0.5,0.8,0.3,1.1-0.3c0.3-0.7,0.2-1.6-0.2-2.1
			C606.4,383.1,605.9,383.3,605.6,384z"/>
		<g>
			<polygon class="st12" points="699.3,311.8 738,328.5 700.7,348.2 611.6,345.1 611.6,317.3 			"/>
			<polygon class="st14" points="699.3,311.8 704.9,311.8 743.6,328.5 738,328.5 			"/>
			<polygon class="st13" points="700.7,348.2 703.7,348.2 743.6,328.5 738,328.5 			"/>
			<path class="st13" d="M617.5,321.5c0.3,0.9,0.2,2.1-0.2,2.7c-0.5,0.6-1.1,0.4-1.4-0.4c-0.3-0.9-0.2-2.1,0.2-2.7
				C616.5,320.4,617.2,320.6,617.5,321.5z"/>
			<path class="st13" d="M617.5,338.5c0.3,0.9,0.2,2.1-0.2,2.7c-0.5,0.6-1.1,0.4-1.4-0.4c-0.3-0.9-0.2-2.1,0.2-2.7
				C616.5,337.5,617.2,337.7,617.5,338.5z"/>
		</g>
		<g>
			<polygon class="st12" points="524,263.6 485.3,280.2 522.5,300 611.6,296.9 611.6,269.1 			"/>
			<polygon class="st14" points="524,263.6 518.4,263.6 479.7,280.2 485.3,280.2 			"/>
			<polygon class="st13" points="522.5,300 519.5,300 479.7,280.2 485.3,280.2 			"/>
			<path class="st13" d="M605.8,273.3c-0.3,0.9-0.2,2.1,0.2,2.7c0.5,0.6,1.1,0.4,1.4-0.4c0.3-0.9,0.2-2.1-0.2-2.7
				C606.8,272.2,606.1,272.4,605.8,273.3z"/>
			<path class="st13" d="M605.8,290.3c-0.3,0.9-0.2,2.1,0.2,2.7c0.5,0.6,1.1,0.4,1.4-0.4c0.3-0.9,0.2-2.1-0.2-2.7
				C606.8,289.2,606.1,289.4,605.8,290.3z"/>
		</g>
		<polygon class="st14" points="556,357.2 552.8,357.2 526.5,374 531.2,374 		"/>
		<polygon class="st13" points="553.7,393.6 549.4,393.6 526.5,374 531.2,374 		"/>
		<path class="st12" d="M627.2,507.9V541h-33.4v-33.3c0-6.2,4.7-11.2,10.7-11.9c0.4,0,0.8-0.1,1.2-0.1h9.4
			C621.8,495.8,627.2,501.2,627.2,507.9z"/>
		<path class="st9" d="M615.4,507.9V541h-21.5v-33.3c0-6.2,4.7-11.2,10.7-11.9C610.6,496.5,615.4,501.6,615.4,507.9z"/>
		<g>
			<g>
				<path class="st9" d="M612.1,228.5v-1.2h-2.9l0,0c-0.8,0.1-1.5,0.4-2.1,1c-0.7,0.7-1,1.5-1,2.4c0,0.9,0.3,1.7,1,2.4
					c0.7,0.7,1.5,1,2.4,1h2.6v-1.2c0.5-0.6,0.8-1.4,0.8-2.3C612.9,229.9,612.7,229.1,612.1,228.5z"/>
				<path class="st9" d="M617.8,200.3c-2.1-1.8-4.7-2.7-7.8-2.7c-2,0-3.9,0.5-5.7,1.4c-1.8,0.9-3.2,2.2-4.2,3.9
					c-0.6,1-0.9,2.1-0.9,3.1c0,0.8,0.2,1.5,0.8,2c0.5,0.5,1.1,0.8,1.9,0.8h2.6c0,0,0-1,0-1.6l1.8-2.4c0.9-0.9,2.2-1.4,3.7-1.4
					c1.3,0,2.4,0.4,3.3,1.1c0.9,0.7,1.3,1.8,1.3,3.1c0,1.5-0.5,2.7-1.4,3.5c-0.7,0.6-1.8,1.2-3.5,1.7c-1.2,0.4-2,0.8-2.4,1.2
					c-0.4,0.4-0.6,1-0.6,1.8v4.8c0,1,0.3,1.8,0.8,2.4c0.5,0.6,1.2,1,2.2,1h2.6v-1.5c0.1-0.2,0.2-0.5,0.3-0.8c0.1-0.5,0.2-1.8,0.2-4
					c2.6-0.5,4.7-1.7,6.3-3.4c1.5-1.8,2.3-4,2.3-6.7C621.1,204.7,620,202.2,617.8,200.3z"/>
			</g>
			<g>
				<path class="st12" d="M623.6,207.8c0,2.7-0.8,4.9-2.3,6.7c-1.5,1.8-3.6,2.9-6.3,3.4c0,2.1-0.1,3.5-0.2,4
					c-0.4,1.5-1.3,2.2-2.9,2.2c-0.9,0-1.7-0.3-2.2-1c-0.5-0.6-0.8-1.5-0.8-2.4v-4.8c0-0.8,0.2-1.4,0.6-1.8c0.4-0.4,1.2-0.8,2.4-1.2
					c1.6-0.5,2.8-1.1,3.5-1.7c0.9-0.8,1.4-2,1.4-3.5c0-1.3-0.4-2.3-1.3-3.1c-0.9-0.7-2-1.1-3.3-1.1c-1.5,0-2.8,0.5-3.7,1.4l-1.9,2.6
					c-0.7,0.9-1.5,1.4-2.4,1.4c-0.8,0-1.4-0.3-1.9-0.8c-0.5-0.5-0.7-1.2-0.7-2c0-1,0.3-2.1,0.9-3.1c1-1.7,2.4-3,4.2-3.9
					c1.8-0.9,3.7-1.4,5.7-1.4c3.1,0,5.7,0.9,7.8,2.7C622.5,202.2,623.6,204.7,623.6,207.8z M615.5,230.8c0,1-0.3,1.8-1,2.4
					c-0.6,0.7-1.5,1-2.4,1c-0.9,0-1.8-0.3-2.4-1c-0.7-0.7-1-1.5-1-2.4c0-1,0.3-1.8,1-2.4c0.7-0.7,1.5-1,2.5-1c1,0,1.8,0.3,2.4,1
					C615.2,229,615.5,229.8,615.5,230.8z"/>
			</g>
		</g>
	</g>
	<path class="st15" d="M60.1,541.2l156.1,1c0,0-14.4-29-50.3-22.8c-22.6,3.9-30.1-2-39.4-7.8c17.2-6.5,42.7-17.3,30.9-19.9
		c-11.3-2.5-26.8,8.6-36.3,16.8c-2-1-4.2-2-6.6-2.8c20.4-19,58.7-56.9,41.8-58c-16.6-1.1-37.6,36.5-47.6,56.5
		c-1.2-0.2-2.4-0.4-3.6-0.6c-5.2-0.7-10,0.3-14.4,2.2c-2.2-8.3-6.3-17.8-11.7-15.9c-5.5,2,0.7,11.6,6.4,18.8
		C69.6,519.2,60.1,541.2,60.1,541.2z"/>
	<path class="st16" d="M972.5,543.4H51.5c-0.7,0-1.2-0.6-1.2-1.2l0,0c0-0.7,0.6-1.2,1.2-1.2h921.1c0.7,0,1.2,0.6,1.2,1.2v0
		C973.8,542.9,973.2,543.4,972.5,543.4z"/>
</g>
<rect class="st17" width="1024" height="60.9"/>
<rect y="539.1" class="st17" width="1024" height="60.9"/>
<rect x="753.6" y="270.4" transform="matrix(3.613946e-15 -1 1 3.613946e-15 692.7343 1294.3937)" class="st17" width="479.9" height="60.9"/>
<rect x="-209.5" y="270.4" transform="matrix(3.613946e-15 -1 1 3.613946e-15 -270.3936 331.2657)" class="st17" width="479.9" height="60.9"/>
</svg>
